<?xml version="1.0" encoding="UTF-8"?>
<svg width="212px" height="58px" viewBox="0 0 212 58" version="1.1" xmlns="http://www.w3.org/2000/svg" xmlns:xlink="http://www.w3.org/1999/xlink">
    <title>logo_web</title>
    <defs>
        <linearGradient x1="49.5972223%" y1="-0.569439474%" x2="49.5972223%" y2="67.3194427%" id="linearGradient-1">
            <stop stop-color="#F3B976" offset="0%"></stop>
            <stop stop-color="#FF6C00" offset="100%"></stop>
        </linearGradient>
    </defs>
    <g id="logo_web" stroke="none" stroke-width="1" fill="none" fill-rule="evenodd">
        <g id="资源-4">
            <g id="logo">
                <path d="M11.3503478,-1.0885642e-15 L46.3225468,-1.0885642e-15 C49.333497,-0.00213634309 52.2217378,1.19979564 54.3508016,3.34093499 C56.4798655,5.48207434 57.6750189,8.3866964 57.6728946,11.414724 L57.6728946,46.585276 C57.6750189,49.6133036 56.4798655,52.5179257 54.3508016,54.659065 C52.2217378,56.8002044 49.333497,58.0021363 46.3225468,58 L11.3503478,58 C8.33939754,58.0021363 5.45115682,56.8002044 3.32209296,54.659065 C1.1930291,52.5179257 -0.00212429466,49.6133036 0,46.585276 L0,11.414724 C-0.00212429466,8.3866964 1.1930291,5.48207434 3.32209296,3.34093499 C5.45115682,1.19979564 8.33939754,-0.00213634309 11.3503478,-1.0885642e-15 Z" id="bg" fill="url(#linearGradient-1)"></path>
                <g id="形象" transform="translate(5.815349, 8.635558)">
                    <g id="耳机" fill="#080707">
                        <path d="M23.0210985,0 C32.0645279,0 38.6648696,4.83333286 41.5885647,11.8094433 C44.2161839,12.5705231 46.0261731,14.9883921 46.0261731,17.7383316 L46.0261731,27.3083306 C46.0248826,29.8679358 44.4544071,32.161725 42.0771822,33.0761079 C41.671511,33.9780132 40.7786003,34.5577586 39.794297,34.5583299 C39.2063053,34.5550151 38.6602337,34.2516069 38.3444647,33.7527745 C38.3444647,33.6077745 38.3444647,33.4547189 38.3444647,33.3097189 L38.3444647,33.3097189 L38.3444647,18.5116648 C38.34006,11.0232907 32.309558,4.95137827 24.8634269,4.93805507 L21.1787701,4.93805507 C13.7263819,4.94249898 7.68613093,11.0170087 7.68171208,18.5116648 L7.68171208,18.5116648 L7.68171208,33.3258301 C7.68171208,33.47083 7.68171208,33.6238856 7.68171208,33.7688856 C7.36594303,34.267718 6.81987144,34.5711262 6.23187973,34.574441 C5.3421075,34.5722525 4.51969854,34.0974511 4.0691464,33.3258301 C1.70250362,32.7154519 0.0354588003,30.5868251 0,28.1299972 L0,17.0858317 C-0.00305230166,14.4163401 1.8971287,12.1286209 4.50970319,11.6563877 C7.51349949,4.76888842 14.1298615,0 23.0210985,0 Z" id="Combined-Shape"></path>
                    </g>
                    <g id="脸" transform="translate(7.649672, 4.938034)" fill="#FFFFFF">
                        <path d="M13.5290985,0 L17.2137553,0 C24.6661435,0.00446544805 30.7063945,6.07897513 30.7108133,13.5736313 L30.7108133,28.3877965 C30.7064696,32.4620191 27.4327378,35.7687112 23.3815504,35.7908514 L7.36130346,35.7908514 C3.29759784,35.7864116 0.00441467595,32.4745504 0,28.3877965 L0,13.5736313 C0.00212038996,9.96875469 1.42920814,6.51260833 3.96686853,3.96659894 C6.50452892,1.42058955 9.94455755,-0.00639346733 13.5290985,0 Z" id="Rectangle-3"></path>
                    </g>
                    <g id="嘴巴" transform="translate(19.336442, 26.788351)" fill="#F4CDBD">
                        <path d="M3.68465679,7.76997896 C4.6512837,7.78072018 5.58255685,7.40482216 6.27357683,6.72499027 C6.96459681,6.04515838 7.35874967,5.11708996 7.36931358,4.14497931 C7.36931358,2.95275721 6.37605827,1.63970178 4.39755778,0.229979697 L4.39755778,0.229979697 C3.97119464,-0.0766598988 3.39811894,-0.0766598988 2.9717558,0.229979697 C0.993255309,1.63164623 0,2.95275721 0,4.14497931 C0.0105639166,5.11708996 0.404716769,6.04515838 1.09573675,6.72499027 C1.78675673,7.40482216 2.71802989,7.78072018 3.68465679,7.76997896 L3.68465679,7.76997896 Z" id="Oval-2"></path>
                    </g>
                    <g id="眼睛" transform="translate(12.119460, 17.376025)" fill="#080707" fill-rule="nonzero">
                        <path d="M1.73004736,0.523417784 L1.73004736,0.523417784 C1.56498219,0.218767253 1.24448619,0.0324076197 0.899595984,0.04053308 C0.554705774,0.0486585403 0.24323894,0.249906937 0.0925404656,0.56199672 C-0.0581580085,0.874086503 -0.0228249447,1.24469876 0.184093533,1.52230658 C1.11074835,2.80685971 2.61209257,3.54367112 4.18915526,3.48786194 C5.76805357,3.55241576 7.273287,2.81369564 8.19421699,1.52230658 C8.42463888,1.10218293 8.29796506,0.574650459 7.90229013,0.306578648 C7.5066152,0.0385068382 6.97289122,0.11861639 6.67229354,0.491195565 L6.67229354,0.491195565 C6.09830798,1.23308241 5.20314055,1.65019574 4.2692565,1.61091768 C3.29755979,1.68406381 2.35095466,1.27864901 1.73004736,0.523417784 L1.73004736,0.523417784 Z" id="Path"></path>
                        <path d="M15.203075,0.483140011 C15.0380098,0.178489479 14.7175139,-0.00787015414 14.3726236,0.000255306194 C14.0277334,0.00838076653 13.7162666,0.209629163 13.5655681,0.521718946 C13.4148697,0.83380873 13.4502027,1.20442099 13.6571212,1.4820288 C14.583776,2.76658194 16.0851202,3.50339335 17.6621829,3.44758416 C19.2410812,3.51213798 20.7463147,2.77341787 21.6672447,1.4820288 C21.8976665,1.06190516 21.7709927,0.534372685 21.3753178,0.266300875 C20.9796429,-0.00177093559 20.4459189,0.0783386161 20.1453212,0.450917791 L20.1453212,0.450917791 C19.5713356,1.19280464 18.6761682,1.60991796 17.7422842,1.5706399 C16.8049749,1.61432041 15.9012145,1.21500646 15.2991965,0.491195565 L15.203075,0.483140011 Z" id="Path-2"></path>
                    </g>
                </g>
            </g>
            <path d="M68.0379915,45.626665 C68.6344779,44.9965359 69.1708383,44.3114948 69.6400162,43.5805541 C70.1153917,42.8477693 70.5306212,42.0772584 70.8815853,41.2766655 L71.6825977,41.5666654 C71.5944863,41.7680543 71.5143851,41.9613876 71.4262737,42.1466654 C71.3381624,42.3319431 71.250051,42.5172209 71.1459194,42.6944431 L73.9334424,42.6944431 L73.9334424,43.4355541 C73.6014563,44.021258 73.2266168,44.581321 72.8120251,45.1111095 L74.4140498,45.1111095 L74.4140498,53.4405532 C74.4458613,53.7602774 74.3757298,54.081891 74.2137967,54.3588864 C74.0557561,54.5459863 73.8318653,54.66434 73.5890071,54.6891641 C73.3885322,54.7322266 73.1849655,54.7591637 72.9802377,54.7697197 C72.7986749,54.7697197 72.6224522,54.7697197 72.4515695,54.7697197 L72.2913671,53.8755531 L72.6998834,53.9158309 L73.1564604,53.9158309 C73.2826726,53.9226908 73.4080833,53.891861 73.5169159,53.8272198 C73.5729868,53.7788865 73.6050273,53.641942 73.6050273,53.424442 L73.6050273,51.2091645 L72.2032557,51.2091645 L72.2032557,54.149442 L71.4022434,54.149442 L71.4022434,51.2091645 L69.9604211,51.2091645 C69.9123604,51.7811089 69.8562895,52.2563866 69.7841984,52.6430532 C69.7014042,53.0394968 69.5916751,53.429764 69.4557834,53.8111087 C69.2983678,54.2335966 69.1082106,54.6430028 68.8870646,55.035553 L68.0860522,54.673053 C68.5014509,53.9161603 68.803739,53.1018676 68.9831861,52.2563866 C69.1427855,51.1469245 69.2097703,50.025975 69.1834392,48.9052758 L69.1834392,45.6830539 L68.6948216,46.2388872 L68.0379915,45.626665 Z M70.7614335,43.4999986 C70.601231,43.781943 70.4250083,44.0558319 70.2407755,44.3055541 L69.6880769,45.1111095 L71.8508103,45.1111095 C72.0430532,44.8613873 72.2272861,44.595554 72.4115189,44.3055541 C72.5957518,44.0155541 72.7639643,43.7497208 72.9161567,43.4999986 L70.7614335,43.4999986 Z M70.016492,49.2597202 C70.016492,49.4530535 70.016492,49.6463869 70.016492,49.8316646 C70.016492,50.0169424 70.016492,50.1941646 70.016492,50.3633312 L71.4342838,50.3633312 L71.4342838,48.5669425 L70.016492,48.5669425 L70.016492,49.2597202 Z M70.016492,47.7211093 L71.4182636,47.7211093 L71.4182636,45.9569428 L70.016492,45.9569428 L70.016492,47.7211093 Z M72.2032557,45.9649983 L72.2032557,47.7211093 L73.6210476,47.7211093 L73.6210476,45.9569428 L72.2032557,45.9649983 Z M72.2032557,50.3633312 L73.6210476,50.3633312 L73.6210476,48.5669425 L72.2032557,48.5669425 L72.2032557,50.3633312 Z M74.6062927,46.3355539 C74.9060342,46.0825611 75.1921355,45.8136602 75.463376,45.5299984 C75.6862896,45.310454 75.8850207,45.0673832 76.0561251,44.8049984 C76.215273,44.5548392 76.3392686,44.2837547 76.4245908,43.999443 C76.5170851,43.6995885 76.5840771,43.3923723 76.6248439,43.0811097 L75.0228192,43.0811097 L75.0228192,42.2755543 L80.7580676,42.2755543 C80.7580676,42.605832 80.7580676,42.9038875 80.7580676,43.1536097 C80.7580676,43.4033319 80.7580676,43.6530541 80.7580676,43.8705541 C80.7580676,44.0880541 80.7580676,44.2894429 80.7100068,44.4747207 L80.6379157,45.0627762 C80.6151453,45.2348764 80.5776251,45.404675 80.525774,45.5702761 C80.4913328,45.6935275 80.4281768,45.8067484 80.3415411,45.9005539 C80.2505613,45.986587 80.1408391,46.0500351 80.0211362,46.0858317 C79.858437,46.1351235 79.6924824,46.1728096 79.5245085,46.1986094 C79.2441542,46.1986094 78.97181,46.2549983 78.7234962,46.2630539 L77.9224839,46.2630539 L77.7622814,45.3608317 C77.9465142,45.3608317 78.1547774,45.3608317 78.3950811,45.4011095 C78.6458093,45.4172224 78.8973046,45.4172224 79.1480327,45.4011095 C79.3320961,45.4172146 79.5160364,45.3688343 79.6686908,45.2641651 C79.7777382,45.1332142 79.8373102,44.9677485 79.8369034,44.7969429 C79.8369034,44.5633318 79.8929742,44.2974985 79.9089945,43.9913874 C79.9250147,43.6852763 79.9089945,43.3952764 79.9570552,43.0972208 L77.5540182,43.0972208 C77.5202215,43.4756687 77.4532094,43.8503692 77.3537651,44.2169429 C77.266154,44.5540174 77.1369908,44.8787569 76.9692792,45.1836095 C76.790022,45.5091801 76.5692072,45.8097833 76.312449,46.0777761 C76.0041264,46.3955194 75.6720713,46.689062 75.3191937,46.9558316 L74.6062927,46.3355539 Z M78.7475266,46.6416649 L78.7475266,48.2527759 L81.0544421,48.2527759 L81.0544421,49.1469425 L78.7555367,49.1469425 L78.7555367,51.1527756 L81.4229078,51.1527756 L81.4229078,51.9583311 L78.7555367,51.9583311 L78.7555367,55.0194419 L77.9064636,55.0194419 L77.9064636,51.9583311 L74.8145559,51.9583311 L74.8145559,51.0802756 L77.9064636,51.0802756 L77.9064636,49.0744425 L76.2163276,49.0744425 C76.1202061,49.3563869 76.0160745,49.6383313 75.9039327,49.8799979 C75.791791,50.1216646 75.6796493,50.4197201 75.5675076,50.6855534 L74.7664952,50.4116646 C75.0450376,49.8188126 75.2910505,49.2110488 75.5034266,48.5911092 C75.7004671,48.0131701 75.8636199,47.4241025 75.9920441,46.8269427 L76.7930564,46.9558316 C76.7369856,47.1491649 76.696935,47.3505538 76.6408641,47.5519426 C76.5960018,47.7589651 76.539846,47.9633481 76.4726515,48.1641648 L77.8744231,48.1641648 L77.8744231,46.5530538 L78.7475266,46.6416649 Z" id="形状" fill="#2C2C2C" fill-rule="nonzero"></path>
            <path d="M68.9351253,55.1161085 L68.0219713,54.7052753 L68.0219713,54.6408308 C68.4376351,53.8848855 68.73739,53.0701423 68.911095,52.2241644 C69.0705489,51.1200943 69.1375353,50.0045086 69.111348,48.8891647 L69.111348,45.8361095 L68.6948216,46.3113872 L67.8938093,45.626665 L67.94187,45.5783317 C68.5362829,44.9521822 69.0725233,44.2726872 69.5438947,43.5483319 C70.0191014,42.8182571 70.4343331,42.0504362 70.7854638,41.2524988 L70.7854638,41.1961099 L71.7306584,41.5263877 L71.7306584,41.5908321 C71.6505572,41.792221 71.5624458,41.9855543 71.4743345,42.170832 C71.3862231,42.3561098 71.3301522,42.4769431 71.250051,42.6299987 L73.9414525,42.6299987 L73.9414525,43.4355541 C73.6307871,43.9955413 73.2828911,44.5338017 72.9001364,45.0466651 L74.494151,45.0466651 L74.494151,53.4405532 C74.5255281,53.7740946 74.4527298,54.1091767 74.2858878,54.3991642 C74.1134861,54.5976669 73.8734638,54.724106 73.6130374,54.7536086 C73.4098699,54.7967261 73.2036373,54.8236615 72.9962579,54.8341641 C72.8120251,54.8341641 72.6358024,54.8341641 72.4595797,54.8341641 L72.4115189,54.8341641 L72.2673367,54.0286087 L72.2673367,54.2380531 L71.3541826,54.2380531 L71.3541826,51.2736089 L70.016492,51.2736089 C69.9684313,51.8294422 69.9123604,52.2805533 69.8482794,52.6511088 C69.7637843,53.0532505 69.6513671,53.4489421 69.5118542,53.8352753 C69.3581746,54.2592857 69.173435,54.6712491 68.9591557,55.0677752 L68.9351253,55.1161085 Z M68.198194,54.6408308 L68.8790545,54.9549974 C69.0769591,54.5782157 69.2482645,54.1879006 69.3917024,53.786942 C69.5213502,53.4089193 69.6204632,53.0209945 69.6880769,52.6269421 C69.7711291,52.1550236 69.829948,51.679115 69.8642997,51.2011089 L69.8642997,51.14472 L71.4663243,51.14472 L71.4663243,54.0849975 L72.1231545,54.0849975 L72.1231545,51.14472 L73.6931387,51.14472 L73.6931387,53.4002754 C73.6931387,53.641942 73.6931387,53.786942 73.5809969,53.8513864 C73.462938,53.9304477 73.3218903,53.9673281 73.1804908,53.9561087 L72.7239137,53.9561087 L72.3954987,53.9561087 L72.5316708,54.7616641 C72.6864299,54.7697059 72.8414988,54.7697059 72.9962579,54.7616641 C73.1983809,54.7515587 73.3993225,54.7246145 73.5970172,54.6811086 C73.8268266,54.661036 74.0396445,54.5511313 74.1897663,54.3749975 C74.3384522,54.1079321 74.4027154,53.8016532 74.3739992,53.496942 L74.3739992,45.1836095 L72.6918732,45.1836095 L72.7719745,45.0788873 C73.1797253,44.553253 73.549154,43.9986592 73.8773715,43.419443 L73.8773715,42.7588875 L71.0898485,42.7588875 L71.1379093,42.6702764 C71.2420409,42.4769431 71.3301522,42.2997209 71.4102535,42.1144432 C71.4903547,41.9291654 71.5704559,41.7841654 71.6425471,41.6069432 L70.9456663,41.357221 C70.5849865,42.1405888 70.1645334,42.8946944 69.6880769,43.6127763 C69.2146342,44.3281081 68.6784877,44.9993964 68.0860522,45.6186095 L68.6627811,46.1261094 L69.2234898,45.4977762 L69.2234898,48.9052758 C69.2494473,50.0286446 69.1824654,51.1522387 69.0232367,52.2644422 C68.8666914,53.0932718 68.5886456,53.8941333 68.198194,54.6408308 Z M72.2673367,53.7788865 L72.3153974,53.7788865 L72.7239137,53.7788865 C72.8733283,53.7869581 73.023066,53.7869581 73.1724806,53.7788865 C73.2836304,53.7820458 73.393793,53.7571186 73.4928856,53.7063865 C73.4928856,53.7063865 73.5569666,53.6338865 73.5569666,53.3519421 L73.5569666,51.2736089 L72.2673367,51.2736089 L72.2673367,53.7788865 Z M78.8196177,55.0838863 L77.8423826,55.0838863 L77.8423826,52.0227755 L74.750475,52.0227755 L74.750475,51.0158312 L77.8423826,51.0158312 L77.8423826,49.1388869 L76.2403579,49.1388869 C76.1442364,49.4047202 76.048115,49.6705535 75.9439834,49.9444424 C75.8398518,50.2183312 75.7196999,50.476109 75.599548,50.7499979 L75.599548,50.8063867 L74.6703737,50.4841646 L74.6703737,50.4197201 C74.9476455,49.8300834 75.1910198,49.2249206 75.399295,48.6072203 C75.5972816,48.0323104 75.7604531,47.4458659 75.8879125,46.8511094 L75.8879125,46.7947205 L76.8491273,46.947776 L76.8491273,47.0122205 L76.7049451,47.6083315 C76.7049451,47.7774982 76.6168337,47.9627759 76.5607629,48.1399981 L77.8103421,48.1399981 L77.8103421,46.5288872 L78.8196177,46.5288872 L78.8196177,48.1399981 L81.1265332,48.1399981 L81.1265332,49.1388869 L78.8196177,49.1388869 L78.8196177,51.0158312 L81.4869888,51.0158312 L81.4869888,52.0227755 L78.8196177,52.0227755 L78.8196177,55.0838863 Z M77.9705446,54.9549974 L78.6914557,54.9549974 L78.6914557,51.8938866 L81.3588268,51.8938866 L81.3588268,51.14472 L78.6914557,51.14472 L78.6914557,49.009998 L80.9983713,49.009998 L80.9983713,48.2044426 L78.6914557,48.2044426 L78.6914557,46.5933316 L77.9705446,46.5933316 L77.9705446,48.2044426 L76.4165806,48.2044426 L76.4165806,48.1158315 C76.4863387,47.9178595 76.5451692,47.7161633 76.5928034,47.5116648 C76.5928034,47.3344426 76.6729046,47.1572204 76.7209653,46.9880538 L76.0080643,46.875276 C75.8833153,47.4532004 75.7255207,48.0234067 75.5354671,48.5830536 C75.3290435,49.1833819 75.0910749,49.772266 74.8225661,50.3472201 L75.5114367,50.5808312 L75.8238315,49.8477757 C75.9279631,49.5738869 76.0320947,49.2919424 76.1282162,49.0422203 L76.1282162,48.9938869 L77.930494,48.9938869 L77.930494,51.1286089 L74.8786369,51.1286089 L74.8786369,51.8777755 L77.9705446,51.8777755 L77.9705446,54.9549974 Z M73.6931387,50.4197201 L72.1391747,50.4197201 L72.1391747,48.5024981 L73.6931387,48.5024981 L73.6931387,50.4197201 Z M72.2753468,50.2908312 L73.5649767,50.2908312 L73.5649767,48.631387 L72.2673367,48.631387 L72.2753468,50.2908312 Z M71.4743345,50.4197201 L69.9363908,50.4197201 L69.9363908,50.3552757 C69.9363908,50.186109 69.9363908,50.0088868 69.9363908,49.8236091 C69.9363908,49.6383313 69.9363908,49.444998 69.9363908,49.2516647 L69.9363908,48.5024981 L71.4663243,48.5024981 L71.4743345,50.4197201 Z M70.0565426,50.2908312 L71.3461725,50.2908312 L71.3461725,48.631387 L70.080573,48.631387 L70.080573,49.2516647 C70.080573,49.444998 70.080573,49.6383313 70.080573,49.8236091 C70.080573,50.0088868 70.0645527,50.1458313 70.0645527,50.2908312 L70.0565426,50.2908312 Z M73.6931387,47.7774982 L72.1391747,47.7774982 L72.1391747,45.916665 L73.6931387,45.916665 L73.6931387,47.7774982 Z M72.2753468,47.6486093 L73.5649767,47.6486093 L73.5649767,46.0374983 L72.2673367,46.0374983 L72.2753468,47.6486093 Z M71.4743345,47.7774982 L69.952411,47.7774982 L69.952411,45.916665 L71.4823446,45.916665 L71.4743345,47.7774982 Z M70.0725629,47.6486093 L71.3461725,47.6486093 L71.3461725,46.0374983 L70.080573,46.0374983 L70.0725629,47.6486093 Z M75.207052,47.020276 L74.494151,46.2872205 L74.5502219,46.2469427 C74.8786369,45.9649983 75.1670014,45.7072206 75.4073051,45.4413873 C75.621138,45.2179204 75.814186,44.9752417 75.984034,44.7163873 C76.1438346,44.4821642 76.2655113,44.2238343 76.3444895,43.9511096 C76.4282924,43.6877421 76.4925498,43.4184845 76.5367325,43.1455542 L74.9347078,43.1455542 L74.9347078,42.1788876 L80.7981182,42.1788876 L80.7981182,42.2513876 C80.7981182,42.5816653 80.7981182,42.8716653 80.7981182,43.1294431 C80.7981182,43.3872208 80.7981182,43.6288875 80.7981182,43.8383319 C80.7981182,44.0477763 80.7981182,44.2652763 80.7500574,44.450554 L80.6779663,45.0386095 C80.6519734,45.215418 80.6145129,45.3903281 80.5658246,45.5622206 C80.5252393,45.6910993 80.4568609,45.8093771 80.3655715,45.9086094 C80.2661763,46.0013327 80.1489582,46.0726108 80.0211362,46.1180539 C79.8535971,46.1678478 79.6820676,46.2028874 79.5084883,46.2227761 C79.2429735,46.2613994 78.9755814,46.2856012 78.707476,46.2952761 L77.7462611,46.2952761 L77.5620283,45.2641651 L77.6501397,45.2641651 C77.8343725,45.2641651 78.0426357,45.2641651 78.2829394,45.2641651 C78.5309945,45.2802874 78.7798258,45.2802874 79.0278809,45.2641651 C79.1935597,45.2813631 79.3601453,45.2416101 79.5004782,45.1513873 C79.5991152,45.02812 79.652823,44.8746111 79.6526705,44.7163873 C79.6526705,44.4827763 79.7087414,44.2169429 79.7247616,43.9108319 C79.7407819,43.6047208 79.7247616,43.3549986 79.7247616,43.1052764 L77.5139676,43.1052764 C77.4789175,43.4670627 77.4146239,43.825377 77.3217246,44.1766652 C77.2222637,44.5312713 77.0796742,44.8721803 76.897188,45.1916651 C76.7179398,45.521757 76.4942121,45.8253669 76.2323478,46.0938872 C75.9438831,46.4138531 75.630494,46.7101635 75.2951634,46.9799982 L75.207052,47.020276 Z M74.7024142,46.2952761 L75.2230722,46.8430538 C75.5565307,46.6003577 75.8699453,46.3309628 76.1602567,46.0374983 C76.4205454,45.7605695 76.641575,45.4488308 76.8170868,45.1111095 C76.9779927,44.8086716 77.1068619,44.4900715 77.2015727,44.1605541 C77.294273,43.7955837 77.3585486,43.4239029 77.3938157,43.0488875 L77.3938157,42.9924986 L79.8929742,42.9924986 L79.8929742,43.0569431 C79.8929742,43.346943 79.8929742,43.636943 79.8449135,43.9511096 C79.7968527,44.2652763 79.8449135,44.5149985 79.7728224,44.7566651 C79.769084,44.9431103 79.7011396,45.1224759 79.5805794,45.2641651 C79.4193095,45.3839552 79.2192338,45.4385695 79.0198708,45.4172206 C78.7691426,45.4333335 78.5176473,45.4333335 78.2669192,45.4172206 L77.7142206,45.4172206 L77.8503927,46.1824983 L78.6033443,46.1824983 C78.8756885,46.1824983 79.1480327,46.1824983 79.4043567,46.1180539 C79.57044,46.0962586 79.7340618,46.0584931 79.8929742,46.0052761 C80.0009332,45.9723545 80.0997027,45.9144122 80.1813387,45.8361095 C80.2608983,45.7508011 80.3210323,45.6490931 80.3575614,45.5380539 C80.403425,45.3741229 80.4382149,45.2072609 80.461693,45.0386095 L80.5337841,44.450554 C80.5337841,44.2679615 80.5498043,44.0665726 80.5818448,43.8463874 C80.5818448,43.636943 80.5818448,43.4033319 80.5818448,43.1374986 C80.5818448,42.8716653 80.5818448,42.6299987 80.5818448,42.3319431 L74.9747584,42.3319431 L74.9747584,43.0327764 L76.5767831,43.0327764 L76.5767831,43.1052764 C76.5329248,43.4212779 76.4659928,43.7336035 76.37653,44.0397207 C76.2844955,44.3228031 76.1580463,44.5933698 76.0000542,44.8452762 C75.8264245,45.1129832 75.6250445,45.3614103 75.399295,45.5863873 C75.1818767,45.8343751 74.951951,46.0709823 74.7104243,46.2952761 L74.7024142,46.2952761 Z M71.8508103,45.1836095 L69.5278745,45.1836095 L69.6079757,45.0788873 C69.8108988,44.8157392 70.0031418,44.5472207 70.1847046,44.2733318 C70.3662674,43.999443 70.5424901,43.7309245 70.7133727,43.4677764 L70.7133727,43.4677764 L72.9802377,43.4677764 L72.9241668,43.564443 C72.7719745,43.8463874 72.6037619,44.1283318 72.419529,44.3699985 C72.2352962,44.6116651 72.0510634,44.9097207 71.8508103,45.175554 L71.8508103,45.1836095 Z M69.7841984,45.0547206 L71.7867293,45.0547206 C71.9709621,44.813054 72.155195,44.5552762 72.3314177,44.2491652 C72.5076404,43.9430541 72.6358024,43.7658319 72.7719745,43.5161097 L70.8014841,43.5161097 C70.6412816,43.7899985 70.473069,44.0558319 70.2888362,44.3216652 C70.1046034,44.5874985 69.9604211,44.8211096 69.7841984,45.0547206 L69.7841984,45.0547206 Z" id="形状" fill="#2C2C2C" fill-rule="nonzero"></path>
            <path d="M90.258074,43.7658319 C90.2100132,43.6449986 90.1379221,43.4838875 90.0498108,43.2824986 C89.9616994,43.0811097 89.8575678,42.8797209 89.7614463,42.6702764 C89.6653248,42.460832 89.5531831,42.2513876 89.4490515,42.0499987 C89.3449199,41.8486098 89.2568085,41.6874988 89.1927276,41.5505543 L89.9937399,41.1880544 L90.3141448,41.7438876 C90.4262866,41.9533321 90.5384283,42.1627765 90.6425599,42.3722209 L90.9149041,42.9602764 L91.1071471,43.419443 L90.3061347,43.7658319 L93.3179411,43.7658319 L93.3179411,44.6358318 L89.3128794,44.6358318 C89.3128794,44.9902762 89.3128794,45.320554 89.3128794,45.6508317 L89.3128794,46.585276 C89.3088964,46.6415938 89.3088964,46.698125 89.3128794,46.7544427 C89.3249719,46.8128909 89.3249719,46.8732167 89.3128794,46.9316649 L92.4127972,46.9316649 C92.4127972,47.5116648 92.4127972,48.0487018 92.4127972,48.5427759 C92.4127972,49.0261091 92.4127972,49.4852758 92.3647365,49.9122202 C92.3166757,50.3391646 92.3647365,50.7177756 92.3006555,51.14472 C92.2365745,51.5716644 92.2525947,51.9502755 92.2205542,52.3127755 C92.2047199,52.6184949 92.1672444,52.9226911 92.1084125,53.2230532 C92.074946,53.4174934 92.004213,53.6035368 91.9001493,53.7708309 C91.8097445,53.897994 91.6845025,53.9959569 91.5396937,54.0527753 C91.3602386,54.1143176 91.1750686,54.1574991 90.9869952,54.1816642 C90.7947523,54.1816642 90.5704688,54.2380531 90.322155,54.2541642 C90.0340152,54.2703545 89.7452014,54.2703545 89.4570616,54.2541642 L89.2648187,53.2391643 C89.5371629,53.2391643 89.7694564,53.2391643 89.9777197,53.2794421 C90.2017153,53.2956013 90.4265744,53.2956013 90.65057,53.2794421 C90.7571599,53.2890083 90.8643851,53.2890083 90.970975,53.2794421 C91.0567926,53.2560055 91.1309669,53.2014937 91.1792382,53.1263865 C91.2409573,53.0059337 91.2790313,52.8746541 91.2913799,52.7397199 C91.2913799,52.5705532 91.3394406,52.320831 91.3554609,51.9986089 C91.3554609,51.4615719 91.3794913,50.8332386 91.427552,50.113609 C91.4756127,49.3939795 91.4996431,48.6367573 91.4996431,47.8419426 L89.2327782,47.8419426 C89.1847174,48.6636092 89.1286466,49.3805536 89.0645656,49.9927757 C89.0204967,50.5181674 88.9429057,51.0401685 88.832272,51.5555533 C88.7017253,52.1086889 88.5193472,52.6481376 88.2875836,53.1666643 C88.0097055,53.7802743 87.6828932,54.3702565 87.3103485,54.9308308 L86.429235,54.4152753 C86.8040453,53.8973328 87.1235442,53.3411138 87.3824397,52.755831 C87.5987055,52.2312996 87.780656,51.6931159 87.9271281,51.14472 C88.0764366,50.5176134 88.1728998,49.8789622 88.2154925,49.2355536 C88.2795735,48.4299981 88.3276342,47.5358315 88.3596747,46.4563872 L88.3997253,44.6277762 L86.885812,44.6277762 L86.885812,43.7658319 L90.258074,43.7658319 Z M92.4768782,46.9880538 C92.7697627,46.5836336 93.0372859,46.16124 93.2778905,45.7233317 C93.5448946,45.2399984 93.7932085,44.740554 94.022832,44.2249985 C94.2551256,43.709443 94.4553787,43.1938875 94.6396115,42.678332 C94.8091577,42.2216089 94.9456849,41.7531683 95.0481278,41.2766655 L95.969292,41.4780543 C95.8491402,41.9049987 95.7289883,42.2836098 95.6008263,42.7266653 C95.4726644,43.1697208 95.320472,43.5322208 95.1602695,43.9108319 L99.9182829,43.9108319 L99.9182829,44.7808318 L98.4924809,44.7808318 C98.3482978,46.7740388 97.8032848,48.7170681 96.8904562,50.4922201 L96.746274,50.7338868 L96.6020918,50.9755534 C97.0504845,51.555742 97.5490572,52.0948824 98.0919747,52.5866643 C98.6873033,53.1415145 99.3276685,53.6453952 100.006394,54.0930531 L99.3976248,54.8986086 C98.1303826,54.0040614 97.0089545,52.9170363 96.0734236,51.6763867 C95.6102193,52.2564546 95.0983629,52.7954697 94.54349,53.2874976 C93.9038089,53.8586132 93.2354205,54.3963566 92.5409592,54.8986086 L91.8440784,54.1413864 C93.2349675,53.2417709 94.4712822,52.1208724 95.5047048,50.8224979 C95.0973157,50.1656963 94.7565121,49.4694284 94.4874192,48.7441647 C94.2104954,48.003459 94.0065932,47.237187 93.8786498,46.4563872 L93.5582448,46.9558316 C93.4461031,47.1169427 93.3339614,47.2780538 93.2138095,47.4311093 L92.4768782,46.9880538 Z M94.4633888,45.3769428 C94.5671789,46.2179271 94.7440788,47.0481421 94.9920569,47.8580537 C95.2364861,48.6341041 95.572645,49.3778481 95.9933224,50.0733313 L96.0413831,50.0008313 C96.9222014,48.3821236 97.4415658,46.5897754 97.5633066,44.7486096 L94.7517532,44.7486096 L94.4633888,45.3769428 Z" id="形状" fill="#2C2C2C" fill-rule="nonzero"></path>
            <path d="M99.3816046,55.0516641 L99.3335439,55.0516641 C98.0775154,54.1519353 96.9647528,53.0654557 96.033373,51.8294422 C95.5763029,52.3949228 95.0696275,52.9179521 94.5194597,53.3922198 C93.8765661,53.962821 93.2055378,54.5005375 92.5089187,55.0033308 L92.5089187,55.0033308 L92.5089187,54.9549974 L91.7639772,54.149442 L91.8280582,54.149442 C93.1962213,53.2546204 94.4176771,52.1512493 95.448634,50.8788867 C95.0455342,50.2293899 94.7074556,49.5413027 94.4393584,48.8247203 C94.1834635,48.1321036 93.990433,47.4176146 93.8626295,46.6899983 L93.6223258,47.0444427 C93.5208643,47.2055538 93.4087225,47.3666649 93.2859006,47.527776 L93.24585,47.5761093 L92.4848883,47.0444427 C92.4848883,47.5814797 92.4848883,48.0728685 92.4848883,48.5186092 C92.4848883,48.9777758 92.4848883,49.444998 92.4368276,49.8880535 C92.3887668,50.331109 92.4368276,50.7338868 92.3727466,51.1205534 C92.3086656,51.50722 92.3246858,51.9261089 92.2926453,52.2886088 C92.2760607,52.5995932 92.2385948,52.9090948 92.1805036,53.2149976 C92.1444286,53.414998 92.0710465,53.6063268 91.9642303,53.7788865 C91.868955,53.9201697 91.7315131,54.0273618 91.5717342,54.0849975 C91.3884119,54.1537597 91.1974251,54.1997482 91.0030155,54.221942 C90.7800939,54.2575244 90.5555224,54.2817221 90.3301651,54.294442 C90.0394795,54.314709 89.7477472,54.314709 89.4570616,54.294442 L89.4090009,54.294442 L89.1286466,53.1666643 L89.2087478,53.1666643 L89.9136387,53.2069421 C90.1376343,53.2231013 90.3624934,53.2231013 90.586489,53.2069421 C90.6877206,53.2166576 90.7896421,53.2166576 90.8908737,53.2069421 C90.9613245,53.1921959 91.022367,53.1483468 91.0590863,53.0861087 C91.1192725,52.974195 91.1547881,52.8505591 91.1632179,52.7236088 C91.1632179,52.5544421 91.2112787,52.3047199 91.2272989,51.9905533 C91.2272989,51.4535163 91.2513293,50.825183 91.29939,50.1055535 C91.29939,49.4047202 91.3554609,48.6636092 91.3714811,47.8983315 L89.2968592,47.8983315 C89.2487984,48.703887 89.1927276,49.3886091 89.1286466,49.9927757 C89.0902623,50.5178597 89.0180192,51.0398836 88.9123732,51.5555533 C88.7857088,52.1098057 88.603203,52.6496321 88.3676848,53.1666643 C88.0958075,53.7961068 87.7687727,54.3999697 87.3904498,54.9711086 L87.3904498,55.0194419 L86.3971945,54.4313864 L86.3971945,54.3749975 C86.7714138,53.8753563 87.0884776,53.334912 87.342389,52.7638866 C87.5677477,52.2428464 87.7499298,51.7039776 87.8870774,51.1527756 C88.0358315,50.5282845 88.1322904,49.892356 88.1754419,49.2516647 C88.2395229,48.4461092 88.2875836,47.5438871 88.3196241,46.4805538 L88.3596747,44.7163873 L86.8297411,44.7163873 L86.8297411,43.7013874 L90.1619525,43.7013874 C90.1619525,43.5966652 90.0578209,43.4597208 89.9857298,43.3147208 C89.9136387,43.1697208 89.8014969,42.9038875 89.6973653,42.6944431 C89.5932337,42.4849987 89.4971123,42.2755543 89.3929806,42.0822209 L89.1286466,41.5827765 L89.1286466,41.5183321 L90.0498108,41.1074988 L90.0498108,41.1558321 L90.3702157,41.7116654 C90.4903676,41.9291654 90.5944992,42.1386098 90.6986308,42.3399987 L90.970975,42.9280542 C91.0510762,43.1133319 91.1151572,43.274443 91.1632179,43.3952764 L91.1632179,43.4516652 L90.6025093,43.7013874 L93.3820221,43.7013874 L93.3820221,44.7002762 L89.3769604,44.7002762 C89.3769604,45.0224984 89.3769604,45.3447206 89.3769604,45.6508317 L89.3769604,46.585276 C89.3731577,46.6416001 89.3731577,46.6981187 89.3769604,46.7544427 C89.3849809,46.7916026 89.3849809,46.8300605 89.3769604,46.8672205 L92.4768782,46.8672205 L92.4768782,46.947776 C92.772756,46.5538547 93.0404338,46.1392928 93.2778905,45.7072206 C93.5422246,45.2319428 93.7905384,44.7244429 94.022832,44.2169429 C94.2551256,43.709443 94.4553787,43.1858319 94.6396115,42.678332 C94.8010539,42.2196455 94.9347995,41.751571 95.0401177,41.2766655 L95.0401177,41.212221 L96.097454,41.4458321 L96.097454,41.5102765 C95.9773021,41.9452765 95.8491402,42.3641654 95.7289883,42.7588875 C95.6088365,43.1536097 95.4726644,43.5080541 95.320472,43.8624985 L100.046445,43.8624985 L100.046445,44.8613873 L98.5245214,44.8613873 C98.3745557,46.8433189 97.8297441,48.7746721 96.9224967,50.5405534 L96.7783145,50.7822201 L96.6581626,50.983609 C97.0958051,51.5604621 97.5807821,52.0993877 98.107995,52.5947199 C98.7041314,53.1452494 99.34148,53.6488635 100.014404,54.1011086 L100.070475,54.1011086 L99.3816046,55.0516641 Z M91.9081594,54.2461086 L92.5169288,54.8986086 C93.2378399,54.366942 93.89467,53.8352753 94.4633888,53.2874976 C95.0179924,52.7977391 95.5273783,52.2585022 95.9853123,51.6763867 L96.0413831,51.6119422 L96.0894439,51.6763867 C97.0064224,52.9140951 98.1089312,54.0011166 99.3575742,54.8986086 L99.8862424,54.1897197 C99.222344,53.7508097 98.5954436,53.2577607 98.0118735,52.7155532 C97.4690968,52.2061474 96.9706516,51.6509749 96.5219905,51.0561089 L96.5219905,51.0158312 L96.5219905,51.0158312 L96.6661727,50.7741645 L96.810355,50.5324979 C97.7196587,48.7645625 98.2645596,46.8301528 98.4123797,44.8452762 L98.4123797,44.7888873 L99.8301715,44.7888873 L99.8301715,44.0477763 L95.0240974,44.0477763 L95.0240974,43.9591652 C95.1842999,43.5832393 95.3284821,43.1885171 95.4566441,42.7749986 C95.576796,42.4044431 95.6969478,41.9694432 95.8090895,41.5988877 L95.0080772,41.4216654 C94.9073171,41.8810526 94.7761939,42.3331676 94.6155811,42.7749986 C94.4340183,43.3120356 94.2257551,43.8275911 93.9907915,44.3216652 C93.7665081,44.8372207 93.5101841,45.3447206 93.24585,45.8280539 C93.0221786,46.2499835 92.7706306,46.6563577 92.4928984,47.0444427 L93.0936577,47.4633315 C93.2057994,47.3183315 93.3019209,47.1733315 93.3980424,47.0363871 C93.4941639,46.8994427 93.6143157,46.7141649 93.7184473,46.5449983 L93.8145688,46.4080538 L93.8145688,46.5691649 C93.9435756,47.3436507 94.144714,48.1042207 94.4153281,48.8408314 C94.6844642,49.5635146 95.0252787,50.2571059 95.4326137,50.911109 L95.4326137,50.911109 L95.4326137,50.911109 C94.435513,52.191743 93.2464955,53.3086927 91.9081594,54.221942 L91.9081594,54.2461086 Z M86.5253564,54.4152753 L87.3263688,54.8744419 C87.6805941,54.3210333 87.9938352,53.7421547 88.2635532,53.1424976 C88.48975,52.6225868 88.6693553,52.083411 88.8002315,51.5313867 C88.9103348,51.0186182 88.9879224,50.4993309 89.0325251,49.9766646 C89.0966061,49.3644424 89.1526769,48.6394425 89.2007377,47.8258315 L89.2007377,47.7694426 L91.5316836,47.7694426 L91.5316836,47.833887 C91.5316836,48.6394425 91.5316836,49.3966647 91.4595925,50.113609 C91.3875014,50.8305534 91.4115318,51.4427756 91.3875014,51.9986089 C91.3875014,52.3127755 91.3875014,52.5624977 91.3234204,52.7397199 C91.3121663,52.8835682 91.271247,53.0234831 91.2032685,53.1505532 C91.1465981,53.2415071 91.0579416,53.3076576 90.9549547,53.3358309 C90.8430115,53.345321 90.7304727,53.345321 90.6185295,53.3358309 C90.3918614,53.3520183 90.1643371,53.3520183 89.937669,53.3358309 L89.3128794,53.3358309 L89.481092,54.2138864 C89.747854,54.2300574 90.0153423,54.2300574 90.2821044,54.2138864 C90.5021538,54.20124 90.721396,54.1770404 90.9389345,54.1413864 C91.1252513,54.1221469 91.3083235,54.0788267 91.4836229,54.0124975 C91.6182947,53.9652136 91.733719,53.8746154 91.8120379,53.7547198 C91.9122001,53.5979621 91.9802782,53.4226937 92.012291,53.2391643 C92.0700043,52.938623 92.1074701,52.6345052 92.1244327,52.3288866 C92.1244327,51.94222 92.1805036,51.5233311 92.204534,51.1688867 C92.2285644,50.8144423 92.2525947,50.3633312 92.268615,49.9363868 C92.2846352,49.5094424 92.268615,49.0261091 92.3166757,48.5669425 C92.3647365,48.1077759 92.3166757,47.5922204 92.3166757,47.0363871 L89.2087478,47.0363871 L89.2087478,46.9638871 C89.216763,46.9104859 89.216763,46.8561773 89.2087478,46.802776 C89.2047596,46.738394 89.2047596,46.6738247 89.2087478,46.6094427 L89.2087478,45.6508317 C89.2087478,45.320554 89.2087478,44.9822207 89.2087478,44.6358318 L89.2087478,44.5713874 L93.2138095,44.5713874 L93.2138095,43.8302763 L86.8938221,43.8302763 L86.8938221,44.5713874 L88.4157456,44.5713874 L88.3676848,46.4644427 C88.3676848,47.5358315 88.2875836,48.4702759 88.2235026,49.2516647 C88.1755677,49.8971344 88.0791715,50.5380353 87.9351382,51.1688867 C87.7891761,51.7184397 87.6044759,52.2568391 87.3824397,52.7799977 C87.1533701,53.3487237 86.8604359,53.8892662 86.5093362,54.3911086 L86.5253564,54.4152753 Z M89.2808389,41.6069432 C89.3369098,41.7277765 89.417011,41.8727765 89.5051224,42.0419432 L89.8175172,42.6622209 C89.9216488,42.8797209 90.0177703,43.0811097 90.1058816,43.2824986 C90.193993,43.4838875 90.258074,43.6127763 90.3061347,43.7336097 L91.0270458,43.4113875 C90.9789851,43.2986097 90.9229142,43.1616653 90.8508231,43.0086097 C90.778732,42.8555542 90.6826105,42.6299987 90.5784789,42.4205542 C90.4743473,42.2111098 90.3782258,42.0177765 90.258074,41.8002765 L89.9697095,41.2927766 L89.2808389,41.6069432 Z M95.9933224,50.2666646 L95.9372515,50.1780535 C95.5156903,49.479099 95.1769588,48.7329074 94.927976,47.9547204 C94.6809675,47.1390746 94.5040944,46.3035953 94.3993078,45.4574984 L94.3993078,45.4574984 L94.7117026,44.7808318 L97.6353977,44.7808318 L97.6353977,44.8533318 C97.5089498,46.6849535 96.9926611,48.4678731 96.1214844,50.0813868 L95.9933224,50.2666646 Z M94.5354799,45.4333317 C94.6338146,46.2666258 94.8081004,47.0890667 95.0561379,47.8902759 C95.2858248,48.6255079 95.6003631,49.3311499 95.9933224,49.9927757 C96.8550292,48.410558 97.3685898,46.6605923 97.4992256,44.8613873 L94.7918039,44.8613873 L94.5354799,45.4333317 Z" id="形状" fill="#2C2C2C" fill-rule="nonzero"></path>
            <path d="M106.534645,44.4827763 C106.814999,44.9016651 107.143414,45.4333317 107.51989,46.0938872 C107.896366,46.7544427 108.320902,47.382776 108.713398,48.0755537 C109.001465,47.3509762 109.242279,46.6082918 109.43431,45.8522206 C109.637233,45.0788873 109.805445,44.2733318 109.938947,43.4355541 L105.437258,43.4355541 L105.437258,42.4366653 L110.892152,42.4366653 L110.892152,43.3791653 C110.740039,44.4248523 110.526056,45.4604866 110.251342,46.4805538 C110.00237,47.3911632 109.680928,48.2801442 109.290127,49.1388869 C109.602522,49.6786091 109.890887,50.1941646 110.171241,50.693609 C110.451595,51.1930534 110.699909,51.6683311 110.924193,52.1033311 L110.067109,52.5786088 C109.898897,52.2322199 109.698644,51.8536089 109.49038,51.4427756 C109.282117,51.0319423 109.041813,50.6372201 108.80151,50.1699979 C107.973916,51.7569625 106.942452,53.2276191 105.733633,54.5441642 L104.93262,53.9077753 C105.611773,53.1401673 106.245657,52.3332313 106.831019,51.4911089 C107.359557,50.7430515 107.82318,49.9506909 108.216771,49.1227758 C107.773544,48.3440722 107.332987,47.58685 106.8951,46.8511094 C106.462554,46.1099983 106.094088,45.4977762 105.749653,45.0063873 L106.534645,44.4827763 Z M109.402269,54.221942 C110.309392,53.641715 111.169187,52.9898447 111.973519,52.2724977 C112.623203,51.6800722 113.215904,51.0273698 113.743756,50.3230535 C113.697612,50.264171 113.659867,50.1990986 113.631614,50.1297201 L113.527483,49.9283313 C113.032686,49.0069396 112.637917,48.034676 112.349994,47.0283316 C111.993313,45.8281524 111.725576,44.6030374 111.548982,43.3630541 L111.220567,43.3630541 L111.220567,42.4366653 L117.2602,42.4366653 L117.2602,43.3630541 C116.944464,45.7321154 116.186207,48.0197881 115.025376,50.1055535 L114.857163,50.3794423 C115.311629,51.0443846 115.817857,51.6720033 116.371076,52.2563866 C117.010136,52.920049 117.698309,53.5340308 118.429678,54.0930531 L117.764838,54.8986086 C117.077853,54.3200162 116.42524,53.7013592 115.810368,53.045831 C115.25419,52.4540399 114.742786,51.8212578 114.280434,51.1527756 C113.72778,51.8784104 113.111173,52.5524372 112.438106,53.1666643 C111.660586,53.8518522 110.844904,54.4919622 109.995018,55.0838863 L109.402269,54.221942 Z M112.534227,43.3630541 C112.708179,44.5133783 112.954315,45.6514841 113.271159,46.7705538 C113.537343,47.7066582 113.902556,48.611365 114.360535,49.4691647 C114.862094,48.6407247 115.260259,47.7533004 115.546034,46.8269427 C115.893801,45.6927198 116.161471,44.53521 116.347046,43.3630541 L112.534227,43.3630541 Z" id="形状" fill="#2C2C2C" fill-rule="nonzero"></path>
            <path d="M109.987008,55.1402752 L109.274107,54.2058309 L109.330178,54.2058309 C110.231601,53.6210153 111.088391,52.9693927 111.893417,52.2563866 C112.546882,51.6805037 113.144944,51.0439877 113.679675,50.3552757 C113.64719,50.3005837 113.617774,50.2441065 113.591564,50.186109 L113.487432,49.9927757 C112.98999,49.0660366 112.592563,48.0884368 112.301934,47.0766649 C111.948996,45.8919028 111.681301,44.6831325 111.500921,43.4597208 L111.164496,43.4597208 L111.164496,42.3722209 L117.332291,42.3722209 L117.332291,43.3630541 C117.014982,45.7430478 116.254065,48.0414789 115.089457,50.1377757 L114.937264,50.3794423 C115.386369,51.0291474 115.884463,51.6431779 116.427147,52.2161088 C117.063772,52.8768568 117.749264,53.4881436 118.477739,54.0447198 L118.5258,54.0447198 L118.485749,54.0930531 L117.780858,54.9711086 L117.732797,54.9308308 C117.045224,54.3500377 116.390066,53.7315035 115.770317,53.0780532 C115.233915,52.5024186 114.736189,51.8915327 114.280434,51.2494423 C113.73513,51.9390257 113.132173,52.5804376 112.478156,53.1666643 C111.715576,53.8529993 110.913152,54.4931995 110.075119,55.0838863 L109.987008,55.1402752 Z M109.45834,54.2380531 L110.011038,54.963053 C110.846483,54.3833106 111.648768,53.7566686 112.414075,53.0861087 C113.095038,52.4959865 113.719857,51.8433522 114.280434,51.1366645 L114.336505,51.0722201 L114.384566,51.14472 C114.851,51.8075608 115.362182,52.4373781 115.914499,53.0297199 C116.512675,53.6644765 117.146513,54.264255 117.812899,54.8261086 L118.397638,54.1011086 C117.682433,53.5553056 117.01025,52.9547204 116.387097,52.3047199 C115.826394,51.7198102 115.314677,51.0893345 114.857163,50.4197201 L114.857163,50.3794423 L115.049406,50.0733313 C116.206353,47.9951647 116.96191,45.7156372 117.27622,43.3549986 L117.27622,42.5011098 L111.340719,42.5011098 L111.340719,43.3066653 L111.661124,43.3066653 L111.661124,43.3630541 C111.841647,44.5970243 112.109328,45.8164979 112.462136,47.0122205 C112.754979,48.0168415 113.149541,48.988596 113.639624,49.9122202 C113.679675,49.9766646 113.711715,50.041109 113.743756,50.1055535 C113.770319,50.1733113 113.80825,50.2359806 113.855898,50.2908312 L113.855898,50.2908312 L113.855898,50.331109 C113.293849,51.0637387 112.666455,51.7432262 111.981529,52.3611088 C111.185441,53.0456995 110.342281,53.6729072 109.45834,54.2380531 L109.45834,54.2380531 Z M105.709602,54.6327753 L104.828489,53.9158309 L104.876549,53.859442 C105.551664,53.0884374 106.185366,52.2817338 106.774949,51.4427756 C107.289768,50.701639 107.745113,49.9204686 108.13667,49.1066647 C107.704123,48.341387 107.263566,47.5841648 106.83903,46.8672205 C106.414493,46.1502761 106.038017,45.5219428 105.693582,45.0224984 L105.693582,44.9741651 L106.550665,44.4102763 L106.590716,44.4586096 C106.86306,44.885554 107.199485,45.4172206 107.575961,46.0697205 C107.952437,46.7222205 108.312892,47.2861093 108.697378,47.9386092 C108.961029,47.2538775 109.185676,46.5545964 109.370229,45.844165 C109.562472,45.0949984 109.730684,44.2974985 109.858846,43.4838875 L105.373177,43.4838875 L105.373177,42.3722209 L110.980263,42.3722209 L110.980263,43.3791653 C110.825823,44.4297485 110.611872,45.4706083 110.339453,46.4966649 C110.079095,47.4004861 109.752455,48.2836481 109.362218,49.1388869 C109.666603,49.662498 109.962978,50.1780535 110.227312,50.6613868 C110.491646,51.14472 110.76399,51.6441644 110.980263,52.0711088 L110.980263,52.1274977 L110.019049,52.6672199 L110.019049,52.610831 C109.850836,52.2724977 109.666603,51.9019422 109.43431,51.4749978 C109.202016,51.0480534 109.025793,50.6694423 108.80952,50.3069424 C108.427446,51.0139599 108.007637,51.6996831 107.551931,52.3611088 C106.997945,53.143815 106.390373,53.8867271 105.733633,54.5844419 L105.709602,54.6327753 Z M105.012721,53.8997198 L105.693582,54.4555531 C106.327073,53.7688921 106.913176,53.0395088 107.447799,52.2724977 C107.920718,51.586554 108.353981,50.8738011 108.745439,50.1377757 L108.80151,50.0249979 L108.857581,50.1297201 L109.546451,51.4024978 C109.754714,51.8052755 109.938947,52.1597199 110.09915,52.4819421 L110.836081,52.0630533 C110.627818,51.65222 110.379504,51.2011089 110.11517,50.7177756 C109.850836,50.2344424 109.546451,49.7027757 109.234056,49.1630536 L109.234056,49.1630536 L109.234056,49.1630536 C109.604789,48.3060896 109.912666,47.4229906 110.155221,46.5208316 C110.423326,45.5023894 110.634589,44.4696662 110.78802,43.4274986 L110.78802,42.5011098 L105.461288,42.5011098 L105.461288,43.3066653 L109.970988,43.3066653 L109.970988,43.3791653 C109.834816,44.1847207 109.666603,45.0547206 109.46635,45.7958317 C109.268025,46.5536355 109.024612,47.2987737 108.737429,48.0272204 L108.689368,48.1480537 L108.625287,48.0433315 C108.208761,47.3424982 107.824275,46.6819427 107.431779,46.0536094 C107.039283,45.4252762 106.750918,44.9419429 106.486584,44.5311096 L105.845774,44.9499984 C106.166179,45.4413873 106.534645,46.0455539 106.951171,46.7383316 C107.367698,47.4311093 107.832285,48.2366648 108.272842,49.0180536 L108.272842,49.0180536 L108.272842,49.0180536 C107.881273,49.8623877 107.417618,50.6709736 106.88709,51.43472 C106.308128,52.2906273 105.682376,53.1135594 105.012721,53.8997198 L105.012721,53.8997198 Z M114.320485,49.5980535 L114.264414,49.5013869 C113.806545,48.6379112 113.441363,47.7278782 113.175037,46.7866649 C112.852454,45.6658223 112.603602,44.5248362 112.430096,43.3711097 L112.430096,43.2986097 L116.435157,43.2986097 L116.435157,43.3711097 C116.245637,44.5477792 115.978035,45.7103761 115.634145,46.8511094 C115.345765,47.7803679 114.944924,48.6704646 114.440637,49.5013869 L114.320485,49.5980535 Z M112.566268,43.4274986 C112.739051,44.5508637 112.982514,45.662076 113.295189,46.7544427 C113.54715,47.6509084 113.893548,48.5177639 114.328495,49.3402758 C114.796616,48.5437671 115.170301,47.6948283 115.441902,46.8108316 C115.78799,45.7034843 116.055663,44.5728785 116.242914,43.4274986 L112.566268,43.4274986 Z" id="形状" fill="#2C2C2C" fill-rule="nonzero"></path>
            <path d="M127.713411,42.170832 L127.713411,53.6741642 L123.916613,53.6741642 L123.916613,42.170832 L127.713411,42.170832 Z M124.709615,45.7313872 L126.920409,45.7313872 L126.920409,43.0166653 L124.709615,43.0166653 L124.709615,45.7313872 Z M124.709615,49.1066647 L126.920409,49.1066647 L126.920409,46.5530538 L124.709615,46.5530538 L124.709615,49.1066647 Z M126.920409,52.8041643 L126.920409,49.9444424 L124.709615,49.9444424 L124.709615,52.7880532 L126.920409,52.8041643 Z M128.634575,54.1816642 C128.784531,54.1215951 128.911029,54.0141686 128.995031,53.8755531 C129.047204,53.7507827 129.071802,53.6161029 129.067122,53.4808309 L129.067122,42.2030543 L135.218897,42.2030543 L135.218897,48.413887 L132.014848,48.413887 C132.13909,48.8645493 132.294327,49.3059832 132.479435,49.734998 C132.618558,50.1104336 132.781773,50.4763886 132.968052,50.8305534 L133.44866,50.5002757 L134.009368,50.0652757 C134.448308,49.7123753 134.865598,49.3330702 135.258948,48.9294425 L135.779606,49.6141646 C135.399811,50.0171992 134.995882,50.3965172 134.570077,50.7499979 C134.369824,50.9191645 134.177581,51.0641645 134.009368,51.1849978 L133.520751,51.5313867 L133.520751,51.5313867 C133.877869,51.9584758 134.293153,52.3327242 134.75431,52.6430532 C135.287459,53.0070636 135.856518,53.3148028 136.452456,53.5613865 L136.03593,54.4474975 C135.731545,54.3024975 135.43517,54.1413864 135.122775,53.9561087 C134.810381,53.7708309 134.522016,53.5774976 134.233652,53.3680532 C133.955159,53.1652172 133.687766,52.9473999 133.432639,52.7155532 C133.198737,52.5099247 132.98667,52.2804567 132.79984,52.0308311 C132.038376,50.9436127 131.494281,49.7179265 131.197815,48.4219425 L130.028337,48.4219425 L130.028337,53.5774976 L130.629096,53.3358309 L131.325977,53.0297199 C131.558271,52.9249976 131.782554,52.8122199 131.998827,52.6994421 C132.215101,52.5866643 132.407344,52.4899977 132.567546,52.4013866 L132.81586,53.3358309 C132.15102,53.6741642 131.51822,53.9722198 130.909451,54.221942 C130.300681,54.4716642 129.667881,54.7374975 129.011051,55.0274974 L128.634575,54.1816642 Z M129.956246,44.885554 L134.329773,44.885554 L134.329773,43.0005542 L129.956246,43.0005542 L129.956246,44.885554 Z M134.329773,47.527776 L134.329773,45.7313872 L129.956246,45.7313872 L129.956246,47.527776 L134.329773,47.527776 Z" id="形状" fill="#2C2C2C" fill-rule="nonzero"></path>
            <path d="M128.89891,55.0597197 L128.554474,54.149442 L128.602535,54.149442 C128.737544,54.0909238 128.853936,53.9961677 128.93896,53.8755531 C128.983843,53.7573354 129.005602,53.6315131 129.003041,53.5049976 L129.003041,42.098332 L135.282978,42.098332 L135.282978,48.4783314 L132.078929,48.4783314 C132.197452,48.8978213 132.341916,49.3094561 132.511475,49.7108313 C132.661349,50.0646991 132.83255,50.4090424 133.024123,50.7419423 L133.44065,50.4438868 C133.608862,50.3230535 133.801105,50.1780535 134.001358,50.0088868 C134.522016,49.5819424 134.938543,49.2033313 135.250937,48.8891647 L135.298998,48.8327758 L135.899757,49.6383313 L135.899757,49.6383313 C135.481871,50.0534333 135.037717,50.4409092 134.570077,50.7983312 L134.009368,51.2333311 L133.584832,51.5313867 C133.929509,51.9336567 134.325416,52.2884729 134.76232,52.5866643 C135.292901,52.9433085 135.856173,53.2481212 136.444446,53.496942 L136.508527,53.496942 L136.027919,54.5038864 L135.971849,54.5038864 C135.659439,54.3556404 135.354667,54.1916356 135.058694,54.0124975 C134.75431,53.8272198 134.449925,53.6338865 134.161561,53.424442 C133.882945,53.2188963 133.615552,52.998391 133.360548,52.7638866 C133.119469,52.5548111 132.901897,52.3197974 132.711728,52.0630533 C131.954535,50.9852121 131.410639,49.7709156 131.109704,48.486387 L130.052367,48.486387 L130.052367,53.4888865 L130.565015,53.2713865 L131.253886,52.973331 L131.934746,52.6430532 L132.503465,52.3449977 L132.567546,52.3449977 L132.8479,53.4002754 L132.79984,53.4002754 C132.14301,53.7386087 131.5022,54.0366642 130.89343,54.294442 C130.284661,54.5522197 129.651861,54.8019419 128.987021,55.0516641 L128.89891,55.0597197 Z M128.714677,54.2541642 L128.971001,54.9388863 C129.611811,54.6891641 130.22859,54.4474975 130.813329,54.1977753 C131.398068,53.9480531 132.030868,53.6580531 132.663668,53.3358309 L132.455404,52.5302755 L131.958777,52.7961088 L131.277916,53.118331 L130.581035,53.424442 L129.980276,53.6741642 L129.892165,53.6741642 L129.892165,48.3333314 L131.173785,48.3333314 L131.173785,48.3816648 C131.470068,49.6727418 132.014266,50.8931853 132.775809,51.9744422 C132.962121,52.2195338 133.171339,52.4461232 133.400599,52.6511088 C133.648913,52.8766643 133.921257,53.0941643 134.201611,53.3036087 C134.481966,53.5130531 134.78635,53.7063865 135.090735,53.8836087 C135.39512,54.0608309 135.659454,54.2138864 135.939808,54.3508308 L136.300264,53.5452754 C135.741049,53.2922252 135.204986,52.9903273 134.698239,52.6430532 C134.239786,52.3386598 133.824773,51.9727858 133.46468,51.5555533 L133.288457,51.5555533 L133.44065,51.4427756 L133.929267,51.0963867 L134.489976,50.6613868 C134.923669,50.3224484 135.338172,49.9593814 135.731545,49.5738869 L135.290988,49.0019425 C134.986603,49.3080536 134.578087,49.6705535 134.081459,50.0813868 L133.512741,50.5163868 C133.344528,50.6452757 133.184326,50.7580534 133.040143,50.8547201 L132.984073,50.8547201 L132.944022,50.7983312 C132.739001,50.4413677 132.554467,50.0728947 132.391323,49.6947202 C132.207792,49.2631874 132.05521,48.818997 131.934746,48.3655537 L131.934746,48.2769425 L135.138796,48.2769425 L135.138796,42.2272209 L129.115183,42.2272209 L129.115183,53.5049976 C129.121247,53.6489924 129.093819,53.7924241 129.035082,53.9238864 C128.960595,54.0514874 128.848676,54.1527861 128.714677,54.2138864 L128.714677,54.2541642 Z M127.777492,53.7788865 L123.852532,53.7788865 L123.852532,42.1063876 L127.777492,42.1063876 L127.777492,53.7788865 Z M123.980694,53.6499976 L127.64933,53.6499976 L127.64933,42.2352765 L123.980694,42.2352765 L123.980694,53.6499976 Z M126.98449,52.9088865 L124.645534,52.9088865 L124.645534,49.8961091 L126.98449,49.8961091 L126.98449,52.9088865 Z M124.773696,52.7799977 L126.856328,52.7799977 L126.856328,50.0249979 L124.773696,50.0249979 L124.773696,52.7799977 Z M126.98449,49.1388869 L124.645534,49.1388869 L124.645534,46.4886094 L126.98449,46.4886094 L126.98449,49.1388869 Z M124.773696,49.009998 L126.856328,49.009998 L126.856328,46.5933316 L124.773696,46.5933316 L124.773696,49.009998 Z M134.385844,47.5841648 L129.884155,47.5841648 L129.884155,45.6588873 L134.385844,45.6588873 L134.385844,47.5841648 Z M130.020327,47.527776 L134.265692,47.527776 L134.265692,45.7877761 L130.020327,45.7877761 L130.020327,47.527776 Z M126.98449,45.8280539 L124.645534,45.8280539 L124.645534,42.9522209 L126.98449,42.9522209 L126.98449,45.8280539 Z M124.773696,45.699165 L126.856328,45.699165 L126.856328,43.1213875 L124.773696,43.1213875 L124.773696,45.699165 Z M134.385844,44.9902762 L129.884155,44.9902762 L129.884155,42.9361097 L134.385844,42.9361097 L134.385844,44.9902762 Z M130.012317,44.8613873 L134.257682,44.8613873 L134.257682,43.0649986 L130.012317,43.0649986 L130.012317,44.8613873 Z" id="形状" fill="#2C2C2C" fill-rule="nonzero"></path>
            <path d="M144.598752,43.4999986 L144.598752,41.2283321 L145.399764,41.2283321 L145.399764,43.4999986 L147.386274,43.4999986 L147.386274,51.4024978 L145.471855,51.4024978 L145.471855,54.9549974 L144.670843,54.9549974 L144.670843,51.4105534 L142.740403,51.4105534 L142.740403,43.4999986 L144.598752,43.4999986 Z M143.477334,46.8672205 L144.598752,46.8672205 L144.598752,44.3055541 L143.477334,44.3055541 L143.477334,46.8672205 Z M143.477334,50.5888868 L144.598752,50.5888868 L144.598752,47.6566648 L143.477334,47.6566648 L143.477334,50.5888868 Z M145.439814,44.3055541 L145.439814,46.8591649 L146.585262,46.8591649 L146.585262,44.3055541 L145.439814,44.3055541 Z M146.585262,50.5969423 L146.585262,47.6566648 L145.479865,47.6566648 L145.479865,50.5969423 L146.585262,50.5969423 Z M146.368989,53.0136088 C147.175653,52.2248634 147.866157,51.3242875 148.41958,50.3391646 C148.918669,49.407634 149.264891,48.4011584 149.444876,47.3586093 L148.059125,47.3586093 L148.059125,46.4966649 L152.512754,43.1938875 L148.37953,43.1938875 L148.37953,42.388332 L153.898505,42.388332 L153.898505,43.2583319 L149.356765,46.5369427 L154.707527,46.5369427 C154.707527,47.4874982 154.707527,48.2930537 154.659467,48.9536091 C154.611406,49.6141646 154.619416,50.1780535 154.595386,50.6533312 C154.571355,51.1286089 154.547325,51.5313867 154.507274,51.86972 C154.467224,52.2080533 154.443193,52.538331 154.403143,52.8524977 C154.375066,53.1242481 154.326872,53.3935136 154.25896,53.6580531 C154.215435,53.8278116 154.133156,53.9850279 154.018657,54.1172198 C153.918486,54.2320422 153.787918,54.3158563 153.642181,54.3588864 C153.453985,54.412013 153.260608,54.4444253 153.065452,54.4555531 L152.128268,54.528053 C151.815873,54.528053 151.575569,54.528053 151.391336,54.528053 L151.199093,53.4808309 C151.407356,53.4808309 151.61562,53.4808309 151.839903,53.4808309 L152.584845,53.4808309 C152.736865,53.4911305 152.889402,53.4911305 153.041422,53.4808309 C153.138014,53.4671182 153.22631,53.4184235 153.289735,53.3438865 C153.361585,53.2475959 153.405902,53.1333894 153.417897,53.0136088 C153.45849,52.822169 153.487911,52.6285048 153.506009,52.4336088 C153.506009,52.1436088 153.57009,51.8374978 153.59412,51.5233311 C153.618151,51.2091645 153.650191,50.838609 153.674221,50.4438868 C153.698252,50.0491646 153.674221,49.589998 153.730292,49.0905536 C153.786363,48.5911092 153.730292,48.0191648 153.730292,47.3586093 L152.456683,47.3586093 C152.366484,48.1550028 152.219249,48.943811 152.016126,49.7188869 C151.842103,50.4065538 151.60893,51.0776943 151.319245,51.72472 C151.047132,52.3317291 150.714335,52.909331 150.32599,53.4486087 C149.921056,53.9985984 149.473783,54.515745 148.988299,54.9952752 L148.259378,54.4152753 C148.732389,53.9643714 149.166494,53.4739076 149.557018,52.9491643 C149.927545,52.4424872 150.251931,51.9032709 150.526243,51.3380534 C150.804597,50.7435889 151.032365,50.1264742 151.207103,49.4933313 C151.392456,48.7967331 151.534245,48.0891445 151.63164,47.3747204 L150.269919,47.3747204 C150.067836,48.5471332 149.698215,49.6839923 149.172532,50.7499979 C148.62548,51.7957063 147.920186,52.7495839 147.08189,53.5774976 L146.368989,53.0136088 Z" id="形状" fill="#2C2C2C" fill-rule="nonzero"></path>
            <path d="M148.988299,55.0758308 L148.187287,54.4152753 L148.243358,54.366942 C148.717759,53.9226805 149.149539,53.4345102 149.532988,52.9088865 C149.904398,52.4028038 150.228834,51.8635044 150.502213,51.2977756 C150.780067,50.7067706 151.005234,50.0921387 151.175063,49.4611091 C151.354039,48.7906815 151.493127,48.1101234 151.591589,47.4230537 L150.34201,47.4230537 C150.136826,48.5813862 149.761591,49.7026173 149.228603,50.7499979 C148.683006,51.8035296 147.974649,52.7633317 147.129951,53.5936087 L147.0899,53.5936087 L146.232817,52.9813865 L146.288888,52.9249976 C147.088028,52.1395331 147.77297,51.2446011 148.323459,50.2666646 C148.807086,49.3648106 149.145059,48.3913637 149.324724,47.382776 L147.954993,47.382776 L147.954993,46.4644427 L147.954993,46.4644427 L152.25643,43.2824986 L148.251368,43.2824986 L148.251368,42.315832 L153.906515,42.315832 L153.906515,43.2986097 L153.906515,43.2986097 L149.524977,46.4563872 L154.739568,46.4563872 L154.739568,46.5208316 C154.739568,47.4955537 154.739568,48.2849981 154.691507,48.937498 C154.643446,49.589998 154.651456,50.1538868 154.627426,50.6372201 C154.603396,51.1205534 154.579365,51.5233311 154.539315,51.8616644 C154.499264,52.1999977 154.475234,52.5302755 154.435183,52.8444421 C154.40659,53.1161186 154.358402,53.3853461 154.291001,53.6499976 C154.242049,53.8305671 154.154581,53.9982489 154.034677,54.1413864 C153.92273,54.2593315 153.781812,54.3454732 153.626161,54.3911086 C153.433929,54.4517173 153.234674,54.4869201 153.033412,54.4958308 C152.729027,54.4958308 152.416632,54.5522197 152.104237,54.5683308 C151.791842,54.5844419 151.543529,54.5683308 151.351286,54.5683308 L151.303225,54.5683308 L151.094962,53.3922198 L151.175063,53.3922198 C151.375316,53.3922198 151.591589,53.3922198 151.807863,53.3922198 L152.552804,53.3922198 C152.699466,53.4028654 152.846699,53.4028654 152.993361,53.3922198 C153.07649,53.3816757 153.153165,53.341693 153.209634,53.2794421 C153.26759,53.188377 153.308324,53.0873305 153.329786,52.9813865 C153.329786,52.8363865 153.385857,52.6430532 153.409887,52.4013866 C153.433918,52.1597199 153.473968,51.8133311 153.497999,51.4911089 C153.522029,51.1688867 153.55407,50.7983312 153.5781,50.4116646 C153.60213,50.0249979 153.618151,49.5497202 153.634171,49.0663869 C153.650191,48.5830536 153.634171,48.051387 153.674221,47.3988871 L152.512754,47.3988871 C152.419834,48.1810028 152.275334,48.9560438 152.080207,49.7188869 C151.902264,50.4064016 151.666449,51.0774351 151.375316,51.72472 C151.103604,52.3386552 150.767975,52.9219107 150.374051,53.4647198 C149.97165,54.016906 149.527078,54.53672 149.04437,55.0194419 L148.988299,55.0758308 Z M148.347489,54.4072197 L148.980289,54.9066641 C149.442347,54.4378805 149.868122,53.9342859 150.253899,53.4002754 C150.642191,52.8666774 150.975019,52.2944218 151.247154,51.6924978 C151.53333,51.0468373 151.766403,50.3786747 151.944035,49.6947202 C152.140493,48.9212856 152.285001,48.1354381 152.376581,47.3424982 L152.376581,47.2861093 L153.794373,47.2861093 L153.794373,47.3505538 C153.794373,48.0352759 153.794373,48.6072203 153.754323,49.082498 C153.714272,49.5577758 153.754323,50.0249979 153.698252,50.4358312 C153.642181,50.8466645 153.650191,51.1930534 153.618151,51.5152756 C153.58611,51.8374978 153.56208,52.1436088 153.530039,52.4336088 C153.511856,52.6311583 153.482438,52.8274983 153.441928,53.0216643 C153.425291,53.1490422 153.378601,53.270571 153.305756,53.3761087 C153.227833,53.4618571 153.1234,53.5186279 153.009381,53.5372198 C152.854687,53.5474957 152.699488,53.5474957 152.544794,53.5372198 L151.791842,53.5372198 C151.60761,53.5372198 151.415367,53.5372198 151.239144,53.5372198 L151.399346,54.4474975 C151.575569,54.4474975 151.807863,54.4474975 152.088217,54.4474975 L153.017391,54.3830531 C153.207341,54.3673484 153.39521,54.3322605 153.5781,54.2783308 C153.713463,54.2403301 153.835549,54.1649886 153.930545,54.0608309 C154.041241,53.9345155 154.118392,53.7821098 154.154829,53.6177754 C154.223781,53.353466 154.27199,53.0841197 154.299011,52.8122199 C154.339062,52.4980532 154.371102,52.1677755 154.403143,51.8294422 C154.435183,51.4911089 154.467224,51.0883312 154.491254,50.6130534 C154.515284,50.1377757 154.539315,49.5577758 154.555335,48.9213869 C154.571355,48.2849981 154.555335,47.5197204 154.603396,46.5772205 L149.116461,46.5772205 L153.794373,43.2261097 L153.794373,42.4205542 L148.40356,42.4205542 L148.40356,43.0972208 L152.664946,43.0972208 L148.083155,46.5047205 L148.083155,47.2619426 L149.476917,47.2619426 L149.476917,47.3424982 C149.289352,48.389301 148.940735,49.400318 148.443611,50.3391646 C147.901717,51.306973 147.227654,52.1936483 146.44108,52.973331 L147.08189,53.4324976 C147.903678,52.6227931 148.593044,51.6875505 149.124471,50.6613868 C149.64676,49.6060101 150.013723,48.4798836 150.213848,47.3183315 L150.213848,47.2861093 L151.711741,47.2861093 L151.711741,47.3586093 C151.608705,48.0753367 151.464279,48.7854261 151.279194,49.4852758 C151.111598,50.1259162 150.883611,50.7490165 150.598334,51.3461089 C150.322245,51.9120588 149.995131,52.451354 149.621099,52.9572199 C149.243287,53.4753334 148.822592,53.9603943 148.36351,54.4072197 L148.347489,54.4072197 Z M145.487875,55.0274974 L144.51865,55.0274974 L144.51865,51.4749978 L142.5802,51.4749978 L142.5802,43.419443 L144.51064,43.419443 L144.51064,41.1638877 L145.479865,41.1638877 L145.479865,43.4436097 L147.386274,43.4436097 L147.386274,51.4991645 L145.471855,51.4991645 L145.487875,55.0274974 Z M144.646812,54.8986086 L145.359713,54.8986086 L145.359713,51.3461089 L147.274133,51.3461089 L147.274133,43.5724986 L145.359713,43.5724986 L145.359713,41.2927766 L144.646812,41.2927766 L144.646812,43.5724986 L142.716373,43.5724986 L142.716373,51.3461089 L144.646812,51.3461089 L144.646812,54.8986086 Z M146.585262,50.6613868 L145.351703,50.6613868 L145.351703,47.5922204 L146.585262,47.5922204 L146.585262,50.6613868 Z M145.479865,50.5324979 L146.4571,50.5324979 L146.4571,47.7211093 L145.479865,47.7211093 L145.479865,50.5324979 Z M144.638802,50.6613868 L143.381213,50.6613868 L143.381213,47.5922204 L144.630792,47.5922204 L144.638802,50.6613868 Z M143.517385,50.5324979 L144.51064,50.5324979 L144.51064,47.7211093 L143.541415,47.7211093 L143.517385,50.5324979 Z M146.585262,46.9397205 L145.351703,46.9397205 L145.351703,44.2572207 L146.585262,44.2572207 L146.585262,46.9397205 Z M145.479865,46.8108316 L146.4571,46.8108316 L146.4571,44.3941652 L145.479865,44.3941652 L145.479865,46.8108316 Z M144.638802,46.9397205 L143.381213,46.9397205 L143.381213,44.2572207 L144.630792,44.2572207 L144.638802,46.9397205 Z M143.517385,46.8108316 L144.51064,46.8108316 L144.51064,44.3941652 L143.541415,44.3941652 L143.517385,46.8108316 Z" id="形状" fill="#2C2C2C" fill-rule="nonzero"></path>
            <path d="M164.648091,42.895832 L164.648091,52.3611088 L160.955424,52.3611088 L160.955424,42.895832 L164.648091,42.895832 Z M161.804497,51.4427756 L163.718916,51.4427756 L163.718916,43.781943 L161.804497,43.781943 L161.804497,51.4427756 Z M164.039321,54.4555531 C164.474815,53.9477969 164.873668,53.4093883 165.23283,52.8444421 C165.514225,52.4140935 165.737778,51.9482005 165.89767,51.4588867 C166.226031,50.0720116 166.360827,48.6459193 166.298176,47.2216649 L166.298176,42.9119431 C167.371533,42.823332 168.428869,42.6863875 169.502225,42.4930542 C170.575582,42.2997209 171.504756,42.0822209 172.353829,41.8405543 L172.594133,42.7991653 C172.236348,42.9012023 171.843851,43.0059245 171.416645,43.1133319 C170.992108,43.2099986 170.535531,43.3066653 170.046914,43.3952764 C169.096379,43.5671282 168.167205,43.6960171 167.259391,43.781943 L167.259391,46.7222205 L173.347085,46.7222205 L173.347085,47.6486093 L171.000118,47.6486093 L171.000118,54.8986086 L170.062934,54.8986086 L170.062934,47.6486093 L167.259391,47.6486093 C167.288543,49.0518941 167.129581,50.4527328 166.786794,51.8133311 C166.611907,52.3584048 166.372559,52.8803831 166.073893,53.3680532 C165.706057,53.9702869 165.293708,54.5438486 164.840334,55.0838863 L164.039321,54.4555531 Z" id="形状" fill="#2C2C2C" fill-rule="nonzero"></path>
            <path d="M164.856354,55.1886085 L163.97524,54.4636086 L164.023301,54.4152753 C164.453988,53.9056157 164.850051,53.3673605 165.208799,52.8041643 C165.488863,52.3770881 165.709834,51.9136696 165.865629,51.4266645 C166.194349,50.0480527 166.329165,48.6298856 166.266135,47.2136093 L166.266135,42.8555542 L166.330216,42.8555542 C167.404854,42.7730691 168.474377,42.6332426 169.534266,42.4366653 C170.575582,42.243332 171.536797,42.0258321 172.37786,41.7841654 L172.433931,41.7841654 L172.714285,42.8636097 L172.658214,42.8636097 C172.289748,42.968332 171.897252,43.0730542 171.472716,43.1697208 C171.048179,43.2663875 170.583592,43.3711097 170.094975,43.4597208 C169.1658,43.6288875 168.252646,43.7577763 167.363522,43.8463874 L167.363522,46.6658316 L173.451216,46.6658316 L173.451216,47.7211093 L171.10425,47.7211093 L171.10425,54.9711086 L170.038904,54.9711086 L170.038904,47.7211093 L167.331482,47.7211093 C167.352059,49.1080405 167.193194,50.491774 166.858885,51.8374978 C166.682329,52.4011431 166.440357,52.9419072 166.137974,53.4486087 C165.764681,54.0517086 165.349807,54.6277501 164.896404,55.1724974 L164.856354,55.1886085 Z M164.159473,54.4474975 L164.840334,55.0033308 C165.270946,54.4766852 165.666952,53.922361 166.025832,53.3438865 C166.323454,52.85961 166.560224,52.3400918 166.730723,51.79722 C167.073871,50.4449069 167.232856,49.0519995 167.20332,47.6566648 L167.20332,47.5922204 L170.127015,47.5922204 L170.127015,54.8422197 L170.928027,54.8422197 L170.928027,47.5922204 L173.274994,47.5922204 L173.274994,46.7866649 L167.1873,46.7866649 L167.1873,43.7255541 L167.251381,43.7255541 C168.148515,43.6449986 169.077689,43.5080541 170.022883,43.3388875 C170.511501,43.2502764 170.968078,43.1536097 171.392615,43.0569431 C171.817151,42.9602764 172.193627,42.8636097 172.514032,42.7588875 L172.297758,41.9533321 C171.496746,42.1869431 170.527521,42.4044431 169.510235,42.5897209 C168.49295,42.7749986 167.427603,42.9199986 166.378277,43.0086097 L166.378277,47.2055538 C166.436516,48.6350186 166.301787,50.0658255 165.977771,51.4588867 C165.811965,51.954824 165.585976,52.4283048 165.304921,52.8686088 C164.958709,53.4201179 164.57603,53.9476028 164.159473,54.4474975 L164.159473,54.4474975 Z M164.712172,52.4013866 L160.891343,52.4013866 L160.891343,42.8313875 L164.712172,42.8313875 L164.712172,52.4013866 Z M161.003484,52.2724977 L164.567989,52.2724977 L164.567989,42.9602764 L161.003484,42.9602764 L161.003484,52.2724977 Z M163.799017,51.4669422 L161.804497,51.4669422 L161.804497,43.7174986 L163.847078,43.7174986 L163.799017,51.4669422 Z M161.884598,51.3380534 L163.670855,51.3380534 L163.670855,43.8463874 L161.884598,43.8463874 L161.884598,51.3380534 Z" id="形状" fill="#2C2C2C" fill-rule="nonzero"></path>
            <path d="M185.594563,41.3894432 L185.594563,44.9258318 L188.926775,44.9258318 L188.926775,41.3813877 L189.839929,41.3813877 L189.839929,44.9258318 L192.242966,44.9258318 L192.242966,45.8280539 L189.839929,45.8280539 L189.839929,50.5808312 L184.625338,50.5808312 L184.625338,45.8280539 L181.998018,45.8280539 L181.998018,53.1666643 L191.85047,53.1666643 L191.85047,54.0930531 L181.028793,54.0930531 L181.028793,45.8280539 L179.010242,45.8280539 L179.010242,44.9258318 L181.028793,44.9258318 L181.028793,41.7519432 L182.006028,41.7519432 L182.006028,44.9258318 L184.633349,44.9258318 L184.633349,41.3894432 L185.594563,41.3894432 Z M188.926775,49.6866646 L188.926775,45.8280539 L185.594563,45.8280539 L185.594563,49.6866646 L188.926775,49.6866646 Z" id="形状" fill="#2C2C2C" fill-rule="nonzero"></path>
            <path d="M191.946591,54.1736086 L181.028793,54.1736086 L181.028793,45.916665 L179.010242,45.916665 L179.010242,44.8613873 L181.028793,44.8613873 L181.028793,41.6874988 L182.13419,41.6874988 L182.13419,44.8613873 L184.633349,44.8613873 L184.633349,41.3249988 L185.698695,41.3249988 L185.698695,44.8613873 L188.902744,44.8613873 L188.902744,41.3088877 L189.976101,41.3088877 L189.976101,44.8613873 L192.379138,44.8613873 L192.379138,45.916665 L189.976101,45.916665 L189.976101,50.6694423 L184.633349,50.6694423 L184.633349,45.916665 L182.13419,45.916665 L182.13419,53.1666643 L191.986642,53.1666643 L191.946591,54.1736086 Z M181.116904,54.0447198 L191.818429,54.0447198 L191.818429,53.2391643 L181.965977,53.2391643 L181.965977,45.7636095 L184.72146,45.7636095 L184.72146,50.5163868 L189.839929,50.5163868 L189.839929,45.7636095 L192.242966,45.7636095 L192.242966,44.958054 L189.839929,44.958054 L189.839929,41.4136099 L189.038916,41.4136099 L189.038916,44.958054 L185.578543,44.958054 L185.578543,41.4538877 L184.777531,41.4538877 L184.777531,44.9902762 L182.022048,44.9902762 L182.022048,41.8163876 L181.172975,41.8163876 L181.172975,44.9902762 L179.154424,44.9902762 L179.154424,45.7958317 L181.172975,45.7958317 L181.116904,54.0447198 Z M188.990856,49.7511091 L185.530482,49.7511091 L185.530482,45.7636095 L188.990856,45.7636095 L188.990856,49.7511091 Z M185.658644,49.6222202 L188.862694,49.6222202 L188.862694,45.916665 L185.658644,45.916665 L185.658644,49.6222202 Z" id="形状" fill="#2C2C2C" fill-rule="nonzero"></path>
            <path d="M209.184377,42.0016654 L209.184377,47.5841648 L204.906971,47.5841648 C205.638156,48.3105302 206.472241,48.9240326 207.382099,49.4047202 C208.464415,49.9772558 209.606041,50.4283918 210.786402,50.7499979 L210.313804,51.6924978 C209.725123,51.5211473 209.147331,51.3140069 208.583618,51.0722201 C208.048562,50.8479857 207.527013,50.5924564 207.021644,50.3069424 L207.021644,54.9469419 L206.060429,54.9469419 L206.060429,50.1458313 L206.80537,50.1458313 C205.815911,49.5719881 204.925847,48.8401182 204.17004,47.978887 C203.427637,48.7874933 202.562492,49.4726592 201.6068,50.0088868 C201.053099,50.3301907 200.483659,50.623247 199.900644,50.8869423 C199.323915,51.1527756 198.691115,51.4024978 198.002245,51.6441644 L197.481587,50.7499979 C198.635471,50.394159 199.751618,49.9246613 200.813798,49.3483313 C201.728627,48.8611037 202.579011,48.2602943 203.344997,47.5599982 L199.107642,47.5599982 L199.107642,42.0016654 L209.184377,42.0016654 Z M198.651065,54.3830531 C199.529901,54.0343803 200.314722,53.4824417 200.94196,52.7719421 C201.33111,52.2020591 201.527692,51.5214179 201.502669,50.8305534 L201.502669,50.1216646 L202.455873,50.1216646 L202.455873,50.8305534 C202.474635,51.6876432 202.234437,52.5302965 201.767003,53.2472198 C201.089328,54.1094601 200.219508,54.7993291 199.227794,55.2611085 L198.651065,54.3830531 Z M200.076867,44.3538874 L203.721473,44.3538874 L203.721473,42.7427764 L200.076867,42.7427764 L200.076867,44.3538874 Z M200.076867,46.7705538 L203.721473,46.7705538 L203.721473,45.1111095 L200.076867,45.1111095 L200.076867,46.7705538 Z M204.650647,42.7427764 L204.650647,44.3538874 L208.263213,44.3538874 L208.263213,42.7427764 L204.650647,42.7427764 Z M208.279233,46.7705538 L208.279233,45.1111095 L204.650647,45.1111095 L204.650647,46.802776 L208.279233,46.7705538 Z" id="形状" fill="#2C2C2C" fill-rule="nonzero"></path>
            <path d="M199.171723,55.325553 L198.522903,54.3588864 L198.586984,54.3588864 C199.45836,54.0048859 200.236823,53.4535636 200.861859,52.7477754 C201.235826,52.1835581 201.426169,51.5163952 201.406547,50.838609 L201.406547,50.2022201 C200.91793,50.476109 200.421302,50.7338868 199.924674,50.9594423 C199.428047,51.1849978 198.707136,51.4749978 198.018265,51.7086089 L197.970204,51.7086089 L197.385465,50.7499979 L197.457556,50.7499979 C198.61116,50.3967905 199.727303,49.929993 200.789768,49.3563869 C201.650603,48.8932331 202.456717,48.3338603 203.192805,47.6888871 L199.051571,47.6888871 L199.051571,41.937221 L209.256468,41.937221 L209.256468,47.6486093 L205.059163,47.6486093 C205.762971,48.3210655 206.555386,48.8929966 207.41414,49.3483313 C208.493378,49.9092047 209.629296,50.3521056 210.802422,50.6694423 L210.882523,50.6694423 L210.345845,51.7327755 L210.289774,51.7327755 C209.702529,51.5538646 209.125008,51.3441327 208.559587,51.1044423 C208.053281,50.8980355 207.560942,50.6585427 207.085725,50.3874979 L207.085725,54.9872197 L205.996348,54.9872197 L205.996348,50.0813868 L206.581087,50.0813868 C205.684368,49.5380579 204.874248,48.8618441 204.17805,48.0755537 C203.442124,48.8646887 202.588086,49.5333115 201.646851,50.0572202 L202.495924,50.0572202 L202.495924,50.8627756 C202.507933,51.7212853 202.26228,52.5634915 201.791033,53.2794421 C201.110434,54.1493317 200.234843,54.8449438 199.235804,55.3094419 L199.171723,55.325553 Z M198.715146,54.4072197 L199.211773,55.1563863 C200.176448,54.6945261 201.021076,54.0133368 201.678891,53.1666643 C202.134494,52.4656443 202.371575,51.6437771 202.359752,50.8063867 L202.359752,50.1619424 L201.558739,50.1619424 L201.558739,50.8063867 C201.578876,51.5103702 201.380062,52.2031257 200.990021,52.7880532 C200.366627,53.4976419 199.587876,54.0519263 198.715146,54.4072197 L198.715146,54.4072197 Z M206.12451,54.8583308 L206.925522,54.8583308 L206.925522,50.2102757 L206.12451,50.2102757 L206.12451,54.8583308 Z M207.037664,50.2102757 L207.037664,50.2102757 C207.54196,50.4925762 208.060664,50.7480212 208.591628,50.9755534 C209.120296,51.1930534 209.681005,51.4024978 210.265744,51.57972 L210.68227,50.7741645 C209.525917,50.4562181 208.406274,50.0160814 207.342049,49.4611091 C206.42437,48.9780653 205.58231,48.3619378 204.84289,47.6324982 L204.730748,47.5197204 L209.104276,47.5197204 L209.104276,42.0661098 L199.171723,42.0661098 L199.171723,47.527776 L203.51321,47.527776 L203.393058,47.6405537 C202.618643,48.3398531 201.763433,48.9429776 200.845838,49.4369424 C199.804508,50.0038143 198.709756,50.4652468 197.577708,50.8144423 L198.026275,51.5716644 C198.691115,51.3380534 199.315905,51.0883312 199.876614,50.838609 C200.437322,50.5888868 201.014051,50.2827757 201.57476,49.9605535 C202.527113,49.4297501 203.387392,48.7468734 204.121979,47.9386092 L204.17004,47.8822204 L204.2181,47.9386092 C204.969762,48.7977629 205.854208,49.5294609 206.837411,50.1055535 L207.037664,50.2183312 L207.037664,50.2102757 Z M208.311274,46.8672205 L204.554526,46.8672205 L204.554526,45.1111095 L208.311274,45.1111095 L208.311274,46.8672205 Z M204.682688,46.7222205 L208.183112,46.7222205 L208.183112,45.1997206 L204.682688,45.1997206 L204.682688,46.7222205 Z M203.753513,46.8511094 L199.980745,46.8511094 L199.980745,45.1111095 L203.753513,45.1111095 L203.753513,46.8511094 Z M200.108907,46.7222205 L203.625351,46.7222205 L203.625351,45.1997206 L200.108907,45.1997206 L200.108907,46.7222205 Z M208.311274,44.4022207 L204.554526,44.4022207 L204.554526,42.6944431 L208.311274,42.6944431 L208.311274,44.4022207 Z M204.682688,44.3055541 L208.183112,44.3055541 L208.183112,42.8474986 L204.682688,42.8474986 L204.682688,44.3055541 Z M203.753513,44.4424985 L199.980745,44.4424985 L199.980745,42.6944431 L203.753513,42.6944431 L203.753513,44.4424985 Z M200.108907,44.3055541 L203.625351,44.3055541 L203.625351,42.8474986 L200.108907,42.8474986 L200.108907,44.3055541 Z" id="形状" fill="#2C2C2C" fill-rule="nonzero"></path>
            <path d="M137.501782,35.1866661 C137.632957,35.2391332 137.779123,35.2391332 137.910298,35.1866661 C138.042161,35.134262 138.146554,35.0292767 138.198663,34.8966661 C138.224159,34.832568 138.237734,34.7643064 138.238714,34.6952772 L138.238714,32.1336108 C138.234389,31.9076537 138.090537,31.7083332 137.878258,31.6341664 C128.962991,28.4763889 124.156916,22.7247228 123.596208,14.5402792 L123.596208,3.59278028 C123.596753,3.49304477 123.568963,3.3952272 123.516107,3.31083586 C123.418346,3.15650563 123.249488,3.0625007 123.06754,3.06111366 L121.073019,3.06111366 C120.897624,3.06425998 120.734129,3.15095547 120.632462,3.29472475 C120.574213,3.38302615 120.54353,3.48681795 120.544351,3.59278028 L120.544351,14.5000014 C119.559106,22.6844451 114.753032,28.4361112 106.254291,31.5938886 C106.043914,31.6736853 105.903912,31.8752805 105.901845,32.1013886 L105.901845,34.6549994 C105.902824,34.7240287 105.9164,34.7922903 105.941896,34.8563883 C106.056287,35.1284475 106.364569,35.2602996 106.638776,35.1544438 C114.384566,31.9322219 119.535075,27.5580557 121.954133,22.0480562 L122.074284,21.7661118 L122.202446,22.0480562 C124.605483,27.5902779 129.764003,31.9966664 137.501782,35.1866661 Z" id="路径" fill="#2C2C2C" fill-rule="nonzero"></path>
            <path d="M153.994626,5.46972454 C153.990327,5.17790299 153.756134,4.94238191 153.465958,4.93805792 L142.812494,4.93805792 C142.522318,4.94238191 142.288125,5.17790299 142.283826,5.46972454 L142.283826,30.2405554 C142.283826,30.5341868 142.520519,30.772222 142.812494,30.772222 L153.465958,30.772222 C153.757934,30.772222 153.994626,30.5341868 153.994626,30.2405554 L153.994626,5.46972454 Z M150.934759,27.7030557 L145.327673,27.7030557 L145.327673,8.05555761 L150.934759,8.05555761 L150.934759,27.7030557 Z" id="形状" fill="#2C2C2C" fill-rule="nonzero"></path>
            <path d="M97.3230029,28.4602778 L97.4431547,28.7341667 C98.5250778,31.1110898 100.056805,33.2534434 101.952854,35.0416661 C102.053569,35.1403039 102.188748,35.1952608 102.32933,35.1947255 C102.469209,35.1880627 102.601163,35.1274808 102.697796,35.025555 C102.796161,34.9277449 102.851047,34.7941089 102.850003,34.6549994 L102.850003,31.5616664 C102.847123,31.4412852 102.804895,31.3252076 102.729836,31.2313887 C101.451133,29.7672738 100.388275,28.1259626 99.5738476,26.357778 C99.0482737,24.8027674 98.8014681,23.1662485 98.8449263,21.5244452 L98.8449263,16.6025012 C98.8449263,16.3088699 98.6082335,16.0708346 98.3162582,16.0708346 L96.3137273,16.0708346 C96.021752,16.0708346 95.7850592,16.3088699 95.7850592,16.6025012 L95.7850592,21.564723 C95.8266928,23.1925983 95.582655,24.8151104 95.0641481,26.357778 C94.2306779,28.126519 93.1519135,29.7674043 91.8600987,31.2313887 C91.7879117,31.3262409 91.7485316,31.4422225 91.7479569,31.5616664 L91.7479569,34.6388883 C91.7438559,34.7769953 91.7959243,34.9108136 91.8921392,35.0094439 C91.9914912,35.1107918 92.1270992,35.1678504 92.268615,35.1678504 C92.4101307,35.1678504 92.5457387,35.1107918 92.6450908,35.0094439 C94.5359613,33.2184669 96.0645889,31.0766448 97.1467802,28.7019445 L97.3230029,28.4602778 Z" id="路径" fill="#2C2C2C" fill-rule="nonzero"></path>
            <path d="M206.661188,2.74694703 C206.623518,2.70146024 206.567856,2.67494454 206.508996,2.67440284 L202.8724,2.67440284 C202.825092,2.67340828 202.779201,2.69071505 202.744238,2.72278036 C202.667913,2.80108912 202.667913,2.92641602 202.744238,3.00472478 L207.990869,9.34444638 C208.028539,9.38993317 208.0842,9.41644886 208.143061,9.41699056 L211.811697,9.41699056 C211.859005,9.41798512 211.904896,9.40067835 211.939859,9.36861304 C211.978168,9.33350463 212,9.28379209 212,9.23166861 C212,9.17954513 211.978168,9.12983259 211.939859,9.09472418 L206.661188,2.74694703 Z" id="路径" fill="#2C2C2C" fill-rule="nonzero"></path>
            <path d="M174.34835,14.5563903 C174.34835,14.2627589 174.111657,14.0247237 173.819682,14.0247237 L159.40146,14.0247237 L159.40146,7.58027988 L159.529622,7.58027988 L172.914538,6.11416892 C173.184422,6.08522361 173.388666,5.85545173 173.387135,5.5825023 L173.387135,3.59278028 C173.387135,3.59278028 173.387135,3.59278028 173.387135,3.53639139 C173.372746,3.39714903 173.303511,3.26949987 173.194892,3.18194698 C173.10324,3.10359135 172.986771,3.06073876 172.866477,3.06111122 L172.802396,3.06111122 L156.83822,4.76083572 C156.568336,4.78978102 156.364092,5.0195529 156.365623,5.29250233 L156.365623,29.145 C156.40352,30.1282279 155.90628,31.054267 155.067983,31.5616664 C154.913394,31.6589099 154.819669,31.829404 154.819669,32.0127775 L154.819669,34.7194439 C154.820277,34.8994008 154.911364,35.0668338 155.061729,35.1643938 C155.212094,35.2619538 155.401327,35.2763974 155.564611,35.2027772 C158.12785,34.0588884 159.42549,31.9805553 159.42549,28.9516667 L159.42549,17.0938901 L168.348768,17.0938901 L168.348768,34.6388883 C168.348768,34.9325197 168.58546,35.1705549 168.877436,35.1705549 L170.879967,35.1705549 C171.021561,35.1727127 171.158097,35.117652 171.25898,35.0177104 C171.359864,34.9177687 171.416661,34.781302 171.416645,34.6388883 L171.416645,17.0938901 L173.819682,17.0938901 C174.111657,17.0938901 174.34835,16.8558548 174.34835,16.5622234 L174.34835,14.5563903 Z" id="路径" fill="#2C2C2C" fill-rule="nonzero"></path>
            <path d="M103.418769,11.8819461 C103.420891,11.7402773 103.365894,11.6037657 103.266272,11.5035787 C103.16665,11.4033917 103.030908,11.3480827 102.890039,11.3502165 L91.7559671,11.3502165 C91.4639917,11.3502165 91.2272989,11.5883148 91.2272989,11.8819461 L91.2272989,22.7730562 C91.2272989,23.0666875 91.4639917,23.3047858 91.7559671,23.3047858 L93.6543663,23.3047858 C93.7959605,23.3068806 93.9324963,23.2518199 94.0333801,23.1518782 C94.1342638,23.0519366 94.1910609,22.9154698 94.1910446,22.7730562 L94.1910446,14.4194459 L100.462971,14.4194459 L100.462971,22.7730562 C100.460787,22.914725 100.515784,23.0512366 100.615406,23.1514236 C100.715028,23.2516106 100.85077,23.3069196 100.991639,23.3047858 L102.890039,23.3047858 C103.030908,23.3069196 103.16665,23.2516106 103.266272,23.1514236 C103.365894,23.0512366 103.420891,22.914725 103.418769,22.7730562 L103.418769,11.8819461 Z" id="路径" fill="#2C2C2C" fill-rule="nonzero"></path>
            <path d="M207.934858,34.2924995 L207.934858,19.4944454 C207.936943,19.3520481 207.882193,19.2147379 207.782815,19.113282 C207.683437,19.011826 207.54774,18.9547069 207.40613,18.9547232 L203.929736,18.9547232 L203.929736,6.54111332 C203.929752,6.39869969 203.872955,6.26223294 203.772071,6.16229127 C203.671188,6.06234961 203.534652,6.00728892 203.393058,6.0094467 L190.897265,6.0094467 L190.897265,3.22222476 C190.892966,2.93040321 190.658773,2.69488213 190.368597,2.69055814 L188.374076,2.69055814 C188.080777,2.69055814 187.841776,2.92729505 187.837398,3.22222476 L187.837398,6.0094467 L178.689837,6.0094467 C178.548243,6.00728892 178.411707,6.06234961 178.310823,6.16229127 C178.209939,6.26223294 178.153159,6.39869969 178.153159,6.54111332 L178.153159,8.54694645 C178.153159,8.68936008 178.209939,8.82582684 178.310823,8.9257685 C178.411707,9.02571017 178.548243,9.08077085 178.689837,9.07861307 L187.845408,9.07861307 L187.845408,18.9547232 L178.689837,18.9547232 C178.393438,18.9547232 178.153159,19.1963651 178.153159,19.4944454 L178.153159,21.5002785 C178.157536,21.7952082 178.396538,22.031978 178.689837,22.0319451 L187.845408,22.0319451 L187.845408,34.6388883 C187.845392,34.781302 187.902189,34.9177687 188.003073,35.0177104 C188.103956,35.117652 188.240492,35.1727127 188.382086,35.1706161 L190.376607,35.1706161 C190.668582,35.1706161 190.905275,34.9325197 190.905275,34.6388883 L190.905275,22.0319451 L204.882941,22.0319451 L204.882941,31.7469442 L199.700391,31.7469442 C199.668867,31.7387587 199.635793,31.7387587 199.604269,31.7469442 C199.509648,31.8029325 199.477493,31.9250982 199.532178,32.020833 L201.054102,34.7194439 C201.086639,34.7829137 201.151315,34.8231785 201.222314,34.8241661 L207.41414,34.8241661 C207.701183,34.8155755 207.930639,34.5812683 207.934858,34.2924995 L207.934858,34.2924995 Z M200.877879,18.922501 L200.741707,18.922501 L190.905275,18.922501 L190.905275,9.07861307 L200.877879,9.07861307 L200.877879,18.922501 Z" id="形状" fill="#2C2C2C" fill-rule="nonzero"></path>
            <path d="M73.1404401,35.2028402 L75.1349609,35.2028402 C75.2758307,35.204974 75.4115724,35.149665 75.5111944,35.049478 C75.6108164,34.949291 75.6658135,34.8127793 75.6636917,34.6711106 L75.6636917,3.22222476 C75.6636917,2.92859339 75.4269362,2.69055814 75.1349609,2.69055814 L73.1404401,2.69055814 C72.8484648,2.69055814 72.611772,2.92859339 72.611772,3.22222476 L72.611772,5.35694677 L68.4785483,5.35694677 C68.1865729,5.35694677 67.9498801,5.59498202 67.9498801,5.88861338 L67.9498801,23.9733338 C67.9541797,24.2651554 68.1883726,24.5006765 68.4785483,24.5050004 L70.4890893,24.5050004 C70.7823883,24.5050333 71.02139,24.2682635 71.0257676,23.9733338 L71.0257676,8.42611313 L72.6277922,8.42611313 L72.6277922,34.6388883 C72.6167096,34.7832045 72.6655246,34.9256964 72.7626439,35.0325231 C72.8597631,35.1393498 72.9965216,35.20098 73.1404401,35.2028402 L73.1404401,35.2028402 Z" id="路径" fill="#2C2C2C" fill-rule="nonzero"></path>
            <rect id="矩形" fill="#2C2C2C" fill-rule="nonzero" x="86.5894374" y="26.1080558" width="3.05986716" height="9.10277688" rx="0.528668148"></rect>
            <path d="M91.6117848,9.42500192 C91.6117848,9.71863329 91.8484776,9.95666854 92.140453,9.95666854 L94.1349737,9.95666854 C94.4269491,9.95666854 94.6636419,9.71863329 94.6636419,9.42500192 L94.6636419,7.37083546 L99.990374,7.37083546 L99.990374,9.42500192 C99.9946736,9.71682347 100.228866,9.95234455 100.519042,9.95666854 L102.529583,9.95666854 C102.819759,9.95234455 103.053952,9.71682347 103.058251,9.42500192 L103.058251,4.83333571 C103.058251,4.53970435 102.821558,4.30166909 102.529583,4.30166909 L94.671652,4.30166909 L94.671652,3.22222476 C94.671652,2.92859339 94.4349592,2.69055814 94.1429839,2.69055814 L92.1164226,2.69055814 C91.8244473,2.69055814 91.5877545,2.92859339 91.5877545,3.22222476 L91.6117848,9.42500192 Z" id="路径" fill="#2C2C2C" fill-rule="nonzero"></path>
            <rect id="矩形" fill="#2C2C2C" fill-rule="nonzero" x="77.2656537" y="26.1080558" width="3.05986716" height="9.10277688" rx="0.528668148"></rect>
            <path d="M81.9275456,34.6388883 C81.9275456,34.9325197 82.1642384,35.1706161 82.4562137,35.1706161 L84.4507345,35.1706161 C84.5923287,35.1727127 84.7288645,35.117652 84.8297482,35.0177104 C84.930632,34.9177687 84.987429,34.781302 84.9874127,34.6388883 L84.9874127,23.2563895 L89.1126263,23.2563895 C89.4046017,23.2563895 89.6413571,23.0183542 89.6413571,22.7247228 L89.6413571,11.2777795 C89.6434401,11.1353822 89.5886899,10.998072 89.4893119,10.8966161 C89.3899339,10.7951602 89.2542368,10.738041 89.1126263,10.7380574 L84.9874127,10.7380574 L84.9874127,8.42611313 L89.1126263,8.42611313 C89.2534961,8.42830995 89.3892379,8.37300095 89.4888599,8.27281395 C89.5884818,8.17262694 89.6434789,8.03611531 89.6413571,7.89444652 L89.6413571,5.88861338 C89.6434789,5.74694459 89.5884818,5.61043296 89.4888599,5.51024596 C89.3892379,5.41005895 89.2534961,5.35474995 89.1126263,5.35694677 L84.9874127,5.35694677 L84.9874127,3.22222476 C84.9830351,2.92729505 84.7440335,2.69055814 84.4507345,2.69055814 L82.4562137,2.69055814 C82.166038,2.69488213 81.9318452,2.93040321 81.9275456,3.22222476 L81.9275456,5.35694677 L77.7943219,5.35694677 C77.5023465,5.35694677 77.2656537,5.59498202 77.2656537,5.88861338 L77.2656537,7.89444652 C77.2656537,8.18807788 77.5023465,8.42611313 77.7943219,8.42611313 L81.9275456,8.42611313 L81.9275456,10.7058351 L77.7943219,10.7058351 C77.5010555,10.7102376 77.2656537,10.9505947 77.2656537,11.2455573 L77.2656537,22.7247228 C77.2699533,23.0165444 77.5041461,23.2520655 77.7943219,23.2563895 L81.9275456,23.2563895 L81.9275456,34.6388883 Z M84.9874127,13.7508348 L86.5894374,13.7508348 L86.5894374,20.1469453 L84.9874127,20.1469453 L84.9874127,13.7508348 Z M80.3255209,13.7508348 L81.9275456,13.7508348 L81.9275456,20.1469453 L80.3255209,20.1469453 L80.3255209,13.7508348 Z" id="形状" fill="#2C2C2C" fill-rule="nonzero"></path>
        </g>
    </g>
</svg>